<svg width="137" height="143" viewBox="0 0 137 143" fill="none" xmlns="http://www.w3.org/2000/svg">
<path d="M47.5991 134.734H88.4012V125.667H47.5991V134.734Z" fill="#A7C9EC"/>
<path d="M2.26562 134.734H38.5312V125.667H2.26562V134.734Z" fill="#A7C9EC"/>
<path d="M97.4688 134.734H133.734V125.667H97.4688V134.734Z" fill="#A7C9EC"/>
<path d="M122.401 107.531H86.1355V116.599H122.401V107.531Z" fill="#A7C9EC"/>
<path d="M4.53125 132.469H36.2656V127.932H4.53125V132.469ZM38.5312 137H2.26562C1.02083 137 0 135.979 0 134.734V125.667C0 124.417 1.02083 123.401 2.26562 123.401H38.5312C39.7812 123.401 40.8021 124.417 40.8021 125.667V134.734C40.8021 135.979 39.7812 137 38.5312 137Z" fill="#417DC8"/>
<path d="M49.9065 106.531H13.6409V115.599H49.9065V106.531Z" fill="#A7C9EC"/>
<path d="M38.573 88.4011H2.30737V97.4688H38.573V88.4011Z" fill="#A7C9EC"/>
<path d="M49.9065 70.2656H13.6409V79.3333H49.9065V70.2656Z" fill="#A7C9EC"/>
<path d="M68.0418 11.3333C64.2866 11.3333 61.2397 14.3801 61.2397 18.1353C61.2397 21.8853 64.2866 24.9322 68.0418 24.9322C71.797 24.9322 74.8439 21.8853 74.8439 18.1353C74.8439 14.3801 71.797 11.3333 68.0418 11.3333Z" fill="#A7C9EC"/>
<path d="M49.9065 131.469H86.1773V126.932H49.9065V131.469ZM88.443 136H47.6409C46.3961 136 45.3752 134.979 45.3752 133.734V124.667C45.3752 123.417 46.3961 122.401 47.6409 122.401H88.443C89.693 122.401 90.7086 123.417 90.7086 124.667V133.734C90.7086 134.979 89.693 136 88.443 136Z" fill="#417DC8"/>
<path d="M97.5105 97.4688H133.776V88.4011H97.5105V97.4688Z" fill="#A7C9EC"/>
<path d="M122.443 70.2656H86.1772V79.3333H122.443V70.2656Z" fill="#A7C9EC"/>
<path d="M22.7502 105.594L29.5522 112.396L36.3543 105.594V105.203L28.6147 97.4688L35.4116 90.6667L28.6147 83.8646L35.4116 77.0677L28.6147 70.2552L36.3543 62.5625V53.4948L37.8647 52.9635C47.8075 49.4688 54.4845 40.0208 54.4845 29.4688C54.4845 15.7135 43.3022 4.53125 29.5522 4.53125C15.8022 4.53125 4.61995 15.7135 4.61995 29.4688C4.61995 40.0208 11.297 49.4688 21.2397 52.9635L22.7502 53.4948V105.594ZM29.5522 118.807L18.2189 107.474V56.6562C7.31266 52.1354 0.0834961 41.401 0.0834961 29.4688C0.0834961 13.2188 13.3075 0 29.5522 0C45.8022 0 59.021 13.2188 59.021 29.4688C59.021 41.401 51.7918 52.1354 40.8856 56.6562V64.4479L35.0262 70.276L41.8231 77.0677L35.0262 83.8646L41.8231 90.6667L35.0262 97.4688L40.8856 103.328V107.474L29.5522 118.807Z" fill="#417DC8"/>
<path d="M84.1512 54.5312C81.6564 54.5312 79.62 56.5677 79.62 59.0677C79.62 61.5625 81.6564 63.599 84.1512 63.599C86.646 63.599 88.6825 61.5625 88.6825 59.0677C88.6825 56.5677 86.646 54.5312 84.1512 54.5312ZM84.1512 68.1302C79.1512 68.1302 75.0835 64.0677 75.0835 59.0677C75.0835 54.0625 79.1512 50 84.1512 50C89.1564 50 93.2189 54.0625 93.2189 59.0677C93.2189 64.0677 89.1564 68.1302 84.1512 68.1302Z" fill="#417DC8"/>
<path d="M99.7762 131.469H131.511V126.932H99.7762V131.469ZM133.776 136H97.5106C96.2606 136 95.2397 134.979 95.2397 133.734V124.667C95.2397 123.417 96.2606 122.401 97.5106 122.401H133.776C135.026 122.401 136.042 123.417 136.042 124.667V133.734C136.042 134.979 135.026 136 133.776 136Z" fill="#417DC8"/>
<path d="M88.443 113.333H120.177V108.802H88.443V113.333ZM122.443 117.865H86.1773C84.9273 117.865 83.9065 116.849 83.9065 115.599V106.531C83.9065 105.286 84.9273 104.266 86.1773 104.266H122.443C123.693 104.266 124.709 105.286 124.709 106.531V115.599C124.709 116.849 123.693 117.865 122.443 117.865Z" fill="#417DC8"/>
<path d="M61.62 130.062H93.3543V125.531H61.62V130.062ZM95.62 134.599H59.3543C58.1043 134.599 57.0835 133.578 57.0835 132.333V123.266C57.0835 122.016 58.1043 121 59.3543 121H95.62C96.87 121 97.8856 122.016 97.8856 123.266V132.333C97.8856 133.578 96.87 134.599 95.62 134.599Z" fill="#417DC8"/>
<path d="M61.62 123.068H93.3543V118.531H61.62V123.068ZM95.62 127.599H59.3543C58.1043 127.599 57.0835 126.583 57.0835 125.333V116.266C57.0835 115.016 58.1043 114 59.3543 114H95.62C96.87 114 97.8856 115.016 97.8856 116.266V125.333C97.8856 126.583 96.87 127.599 95.62 127.599Z" fill="#417DC8"/>
<path d="M4.61475 138.068H36.3491V133.536H4.61475V138.068ZM38.6147 142.599H2.34912C1.10433 142.599 0.0834961 141.583 0.0834961 140.333V131.266C0.0834961 130.021 1.10433 129 2.34912 129H38.6147C39.8647 129 40.8856 130.021 40.8856 131.266V140.333C40.8856 141.583 39.8647 142.599 38.6147 142.599Z" fill="#417DC8"/>
<path d="M4.573 130.062H36.3074V125.531H4.573V130.062ZM38.573 134.599H2.30737C1.06258 134.599 0.041748 133.578 0.041748 132.333V123.266C0.041748 122.016 1.06258 121 2.30737 121H38.573C39.823 121 40.8438 122.016 40.8438 123.266V132.333C40.8438 133.578 39.823 134.599 38.573 134.599Z" fill="#417DC8"/>
<path d="M4.61475 123.068H36.3491V118.531H4.61475V123.068ZM38.6147 127.599H2.34912C1.10433 127.599 0.0834961 126.583 0.0834961 125.333V116.266C0.0834961 115.016 1.10433 114 2.34912 114H38.6147C39.8647 114 40.8856 115.016 40.8856 116.266V125.333C40.8856 126.583 39.8647 127.599 38.6147 127.599Z" fill="#417DC8"/>
</svg>
