<svg width="441" height="441" viewBox="0 0 441 441" fill="none" xmlns="http://www.w3.org/2000/svg">
<path d="M393.663 128.146C393.663 128.146 322.75 26.0542 234.215 15.2497C156.061 5.65357 83.5166 43.0327 73.4177 123.789C69.8191 152.586 63.4158 184.4 52.038 210.648C39.2754 240.089 17.4989 264.6 34.1775 321.198C50.8561 377.796 121.293 428.908 172.493 428.802C223.693 428.696 271.788 382.153 311.469 339.826C351.151 297.499 477.515 257.694 393.663 128.146Z" fill="#82AAE3"/>
<path opacity="0.7" d="M393.663 128.146C393.663 128.146 322.75 26.0542 234.215 15.2497C156.061 5.65357 83.5166 43.0327 73.4177 123.789C69.8191 152.586 63.4158 184.4 52.038 210.648C39.2754 240.089 17.4989 264.6 34.1775 321.198C50.8561 377.796 121.293 428.908 172.493 428.802C223.693 428.696 271.788 382.153 311.469 339.826C351.151 297.499 477.515 257.694 393.663 128.146Z" fill="white"/>
<g opacity="0.3">
<path d="M109.262 156.67H43.0504L43.7207 143.889H109.932L109.262 156.67Z" stroke="black" stroke-width="0.882" stroke-linecap="round" stroke-linejoin="round"/>
<path d="M109.262 174.565H43.0504L43.7207 161.785H109.932L109.262 174.565Z" stroke="black" stroke-width="0.882" stroke-linecap="round" stroke-linejoin="round"/>
<path d="M109.262 192.461H43.0504L43.7207 179.681H109.932L109.262 192.461Z" stroke="black" stroke-width="0.882" stroke-linecap="round" stroke-linejoin="round"/>
<path d="M109.262 210.357H43.0504L43.7207 197.577H109.932L109.262 210.357Z" stroke="black" stroke-width="0.882" stroke-linecap="round" stroke-linejoin="round"/>
<path d="M109.262 228.262H43.0504L43.7207 215.473H109.932L109.262 228.262Z" stroke="black" stroke-width="0.882" stroke-linecap="round" stroke-linejoin="round"/>
<path d="M109.262 246.157H43.0504L43.7207 233.368H109.932L109.262 246.157Z" stroke="black" stroke-width="0.882" stroke-linecap="round" stroke-linejoin="round"/>
<path d="M109.262 264.053H43.0504L43.7207 251.264H109.932L109.262 264.053Z" stroke="black" stroke-width="0.882" stroke-linecap="round" stroke-linejoin="round"/>
<path d="M109.262 281.949H43.0504L43.7207 269.16H109.932L109.262 281.949Z" stroke="black" stroke-width="0.882" stroke-linecap="round" stroke-linejoin="round"/>
<path d="M109.262 299.845H43.0504L43.7207 287.056H109.932L109.262 299.845Z" stroke="black" stroke-width="0.882" stroke-linecap="round" stroke-linejoin="round"/>
<path d="M109.262 317.74H43.0504L43.7207 304.951H109.932L109.262 317.74Z" stroke="black" stroke-width="0.882" stroke-linecap="round" stroke-linejoin="round"/>
<path d="M109.262 335.636H43.0504L43.7207 322.856H109.932L109.262 335.636Z" stroke="black" stroke-width="0.882" stroke-linecap="round" stroke-linejoin="round"/>
<path d="M179.275 156.67H113.064L113.734 143.889H179.946L179.275 156.67Z" stroke="black" stroke-width="0.882" stroke-linecap="round" stroke-linejoin="round"/>
<path d="M179.275 174.565H113.064L113.734 161.785H179.946L179.275 174.565Z" stroke="black" stroke-width="0.882" stroke-linecap="round" stroke-linejoin="round"/>
<path d="M179.275 192.461H113.064L113.734 179.681H179.946L179.275 192.461Z" stroke="black" stroke-width="0.882" stroke-linecap="round" stroke-linejoin="round"/>
<path d="M179.275 210.357H113.064L113.734 197.577H179.946L179.275 210.357Z" stroke="black" stroke-width="0.882" stroke-linecap="round" stroke-linejoin="round"/>
<path d="M179.275 228.262H113.064L113.734 215.473H179.946L179.275 228.262Z" stroke="black" stroke-width="0.882" stroke-linecap="round" stroke-linejoin="round"/>
<path d="M179.275 246.157H113.064L113.734 233.368H179.946L179.275 246.157Z" stroke="black" stroke-width="0.882" stroke-linecap="round" stroke-linejoin="round"/>
<path d="M179.275 264.053H113.064L113.734 251.264H179.946L179.275 264.053Z" stroke="black" stroke-width="0.882" stroke-linecap="round" stroke-linejoin="round"/>
<path d="M179.275 281.949H113.064L113.734 269.16H179.946L179.275 281.949Z" stroke="black" stroke-width="0.882" stroke-linecap="round" stroke-linejoin="round"/>
<path d="M179.275 299.845H113.064L113.734 287.056H179.946L179.275 299.845Z" stroke="black" stroke-width="0.882" stroke-linecap="round" stroke-linejoin="round"/>
<path d="M179.275 317.74H113.064L113.734 304.951H179.946L179.275 317.74Z" stroke="black" stroke-width="0.882" stroke-linecap="round" stroke-linejoin="round"/>
<path d="M179.275 335.636H113.064L113.734 322.856H179.946L179.275 335.636Z" stroke="black" stroke-width="0.882" stroke-linecap="round" stroke-linejoin="round"/>
</g>
<g opacity="0.3">
<path d="M382.867 169.9H297.402V234.559H382.867V169.9Z" stroke="black" stroke-width="0.882" stroke-linecap="round" stroke-linejoin="round"/>
<path d="M378.219 175.245H302.032V229.223H378.219V175.245Z" stroke="black" stroke-width="0.882" stroke-linecap="round" stroke-linejoin="round"/>
<path d="M326.878 183.747H353.382" stroke="black" stroke-width="0.882" stroke-linecap="round" stroke-linejoin="round"/>
<path d="M309.714 191.579H370.546" stroke="black" stroke-width="0.882" stroke-linecap="round" stroke-linejoin="round"/>
<path d="M323.271 207.235H356.989" stroke="black" stroke-width="0.882" stroke-linecap="round" stroke-linejoin="round"/>
<path d="M310.314 222.899H323.57" stroke="black" stroke-width="0.882" stroke-linecap="round" stroke-linejoin="round"/>
<path d="M356.69 222.899H369.937" stroke="black" stroke-width="0.882" stroke-linecap="round" stroke-linejoin="round"/>
</g>
<g opacity="0.3">
<path d="M406.073 248.195H343.169V295.788H406.073V248.195Z" stroke="black" stroke-width="0.882" stroke-linecap="round" stroke-linejoin="round"/>
<path d="M402.659 252.129H346.582V291.863H402.659V252.129Z" stroke="black" stroke-width="0.882" stroke-linecap="round" stroke-linejoin="round"/>
<path d="M364.875 258.391H384.376" stroke="black" stroke-width="0.882" stroke-linecap="round" stroke-linejoin="round"/>
<path d="M352.236 264.15H397.015" stroke="black" stroke-width="0.882" stroke-linecap="round" stroke-linejoin="round"/>
<path d="M362.211 275.678H387.039" stroke="black" stroke-width="0.882" stroke-linecap="round" stroke-linejoin="round"/>
<path d="M352.676 287.206H362.431" stroke="black" stroke-width="0.882" stroke-linecap="round" stroke-linejoin="round"/>
<path d="M386.81 287.206H396.565" stroke="black" stroke-width="0.882" stroke-linecap="round" stroke-linejoin="round"/>
</g>
<path d="M333.202 281.675L241.889 278.5C238.125 278.371 234.362 278.371 230.599 278.5L145.53 281.675L149.305 162.235C149.446 157.713 149.446 153.186 149.305 148.652L145.53 35.9502H333.202V281.675Z" fill="#263238" stroke="#263238" stroke-width="0.882" stroke-linecap="round" stroke-linejoin="round"/>
<path d="M336.218 31.7344H148.546V277.46H336.218V31.7344Z" fill="white" stroke="#263238" stroke-width="0.882" stroke-linecap="round" stroke-linejoin="round"/>
<path d="M323.738 98.7046H161.018V263.427H323.738V98.7046Z" fill="white" stroke="#263238" stroke-width="0.882" stroke-linecap="round" stroke-linejoin="round"/>
<path d="M162.544 74.0879V43.9676H171.364C172.897 43.9002 174.421 44.2475 175.774 44.9731C176.904 45.6453 177.781 46.6713 178.27 47.8925C178.836 49.3689 179.106 50.9423 179.064 52.523C179.134 54.1614 178.788 55.7909 178.058 57.2593C177.442 58.4272 176.455 59.3578 175.253 59.9053C173.909 60.4812 172.456 60.7609 170.993 60.7256H168.021V74.0879H162.544ZM168.047 56.836H170.129C170.928 56.8725 171.725 56.7246 172.457 56.4038C172.733 56.2656 172.977 56.0721 173.174 55.8354C173.372 55.5986 173.518 55.3237 173.604 55.0279C173.842 54.1999 173.949 53.3399 173.922 52.4789C173.94 51.5908 173.86 50.7034 173.683 49.8329C173.622 49.5238 173.498 49.2306 173.319 48.9712C173.14 48.7118 172.91 48.4918 172.643 48.3247C171.86 47.9507 170.995 47.7836 170.129 47.8396H168.047V56.836Z" fill="#82AAE3"/>
<path d="M169.238 88.6146L175.298 72.6328L169.423 58.5208H174.557L178.455 67.8523L181.877 58.5208H186.64L180.81 73.6735L187.055 88.6146H181.957L177.679 78.4981L173.957 88.6058L169.238 88.6146Z" fill="#82AAE3"/>
<path d="M253.637 53.2551H323.2" stroke="#263238" stroke-width="0.882" stroke-linecap="round" stroke-linejoin="round"/>
<path d="M253.637 68.2667H323.2" stroke="#263238" stroke-width="0.882" stroke-linecap="round" stroke-linejoin="round"/>
<path d="M268.657 61.7665H323.2" stroke="#263238" stroke-width="0.882" stroke-linecap="round" stroke-linejoin="round"/>
<path d="M268.657 75.2787H323.2" stroke="#263238" stroke-width="0.882" stroke-linecap="round" stroke-linejoin="round"/>
<path d="M166.557 116.812H221.109" stroke="#263238" stroke-width="0.882" stroke-linecap="round" stroke-linejoin="round"/>
<path d="M166.557 131.056H221.109" stroke="#263238" stroke-width="0.882" stroke-linecap="round" stroke-linejoin="round"/>
<path d="M166.557 124.177H249.139" stroke="#263238" stroke-width="0.882" stroke-linecap="round" stroke-linejoin="round"/>
<path d="M166.557 148.414H221.109" stroke="#263238" stroke-width="0.882" stroke-linecap="round" stroke-linejoin="round"/>
<path d="M166.557 162.658H221.109" stroke="#263238" stroke-width="0.882" stroke-linecap="round" stroke-linejoin="round"/>
<path d="M166.557 155.779H249.139" stroke="#263238" stroke-width="0.882" stroke-linecap="round" stroke-linejoin="round"/>
<path d="M165.393 254.545H217.104" stroke="#263238" stroke-width="0.882" stroke-linecap="round" stroke-linejoin="round"/>
<path d="M263.453 254.545H315.165" stroke="#263238" stroke-width="0.882" stroke-linecap="round" stroke-linejoin="round"/>
<path d="M172.687 197.771C169.595 199.733 167.153 202.567 165.671 205.916C164.19 209.265 163.734 212.978 164.362 216.586C164.989 220.194 166.672 223.534 169.198 226.186C171.724 228.837 174.979 230.681 178.552 231.483C182.126 232.285 185.856 232.01 189.273 230.692C192.69 229.375 195.64 227.074 197.749 224.081C199.859 221.087 201.034 217.536 201.126 213.875C201.217 210.214 200.222 206.608 198.265 203.513C196.964 201.455 195.27 199.673 193.279 198.271C191.289 196.868 189.042 195.872 186.666 195.338C184.291 194.805 181.833 194.745 179.434 195.163C177.036 195.58 174.743 196.466 172.687 197.771V197.771ZM190.459 225.792C188.015 227.341 185.166 228.13 182.273 228.06C179.38 227.99 176.573 227.064 174.207 225.398C171.84 223.733 170.021 221.403 168.978 218.704C167.935 216.005 167.716 213.057 168.349 210.233C168.982 207.409 170.437 204.837 172.532 202.84C174.626 200.844 177.266 199.513 180.117 199.016C182.968 198.52 185.902 198.88 188.548 200.051C191.194 201.221 193.434 203.151 194.984 205.594C196.013 207.217 196.713 209.027 197.043 210.921C197.373 212.815 197.326 214.755 196.906 216.63C196.486 218.506 195.7 220.281 194.594 221.853C193.488 223.425 192.083 224.763 190.459 225.792V225.792Z" fill="#82AAE3"/>
<path d="M189.5 207.401L173.728 217.395L175.338 219.936L191.11 209.942L189.5 207.401Z" fill="#82AAE3"/>
<path d="M173.675 248.724C173.675 248.724 173.93 254.598 181.613 244.12C189.295 233.642 188.263 234.418 186.217 240.292C184.649 244.358 182.575 248.211 180.043 251.758C180.043 251.758 189.251 237.187 189.251 241.271C189.251 245.355 180.554 262.748 182.345 261.213C184.135 259.678 189.762 252.014 189.762 252.014C189.762 252.014 188.995 257.12 191.032 254.818C193.07 252.516 195.381 247.921 195.125 250.479C194.869 253.037 191.544 256.097 194.869 253.037C198.194 249.976 200.752 246.131 199.985 248.944C199.217 251.758 197.171 252.781 199.217 251.758C201.264 250.735 212.765 231.56 209.184 233.862C205.603 236.164 198.962 256.097 202.031 254.563C205.1 253.028 208.672 245.363 208.417 249.2C208.161 253.037 209.184 253.037 210.181 251.758" stroke="#263238" stroke-width="0.882" stroke-linecap="round" stroke-linejoin="round"/>
<path d="M426.085 410.351H23.4171" stroke="#263238" stroke-width="0.882" stroke-linecap="round" stroke-linejoin="round"/>
<path d="M426.085 418.782H23.4171" stroke="#263238" stroke-width="0.882" stroke-linecap="round" stroke-linejoin="round"/>
<path d="M404.026 317.344H318.649C317.302 317.343 315.999 317.827 314.98 318.708C313.961 319.59 313.294 320.809 313.101 322.142L300.33 409.46H401.857L409.61 323.43C409.677 322.656 409.582 321.877 409.332 321.141C409.082 320.406 408.682 319.731 408.157 319.158C407.632 318.586 406.994 318.129 406.283 317.817C405.571 317.504 404.803 317.343 404.026 317.344V317.344Z" fill="#263238" stroke="#263238" stroke-width="0.882" stroke-linecap="round" stroke-linejoin="round"/>
<path d="M288.414 303.091C288.414 303.091 265.314 314.557 257.385 317.723C249.456 320.889 247.507 322.309 246.801 324.25C246.096 326.19 215.243 374.674 211.724 379.084C208.205 383.494 200.611 393.011 201.669 399.529C202.728 406.046 211.195 411.7 219.309 411.524C227.424 411.347 232.539 409.76 233.421 407.467C234.303 405.173 256.697 365.13 256.697 365.13L263.753 409.733H353.85C353.85 409.733 360.906 348.734 360.906 339.738C360.906 330.741 362.67 320.166 358.965 317.873C355.261 315.58 339.923 310.297 328.633 306.592C317.344 302.888 313.824 302.182 311.187 302.182C308.55 302.182 288.414 303.091 288.414 303.091Z" fill="white" stroke="#263238" stroke-width="0.882" stroke-linecap="round" stroke-linejoin="round"/>
<path d="M285.971 303.408C285.971 303.408 282.972 309.053 282.796 313.639C282.619 318.226 281.914 326.684 279.268 331.8C276.622 336.915 274.681 339.738 276.092 339.2C277.504 338.662 285.609 329.683 286.491 327.734C287.373 325.785 288.784 329.498 288.784 329.498C288.784 329.498 286.138 337.074 285.786 338.133C285.433 339.191 296.89 353.823 296.89 353.823C296.89 353.823 306.768 346.071 309.062 344.307C311.355 342.543 310.649 341.131 310.826 338.838C311.002 336.545 311.708 333.202 312.934 331.262C314.16 329.321 317.705 336.924 320.166 340.452C322.627 343.98 325.105 345.215 324.752 342.569C324.4 339.923 323.165 334.807 322.283 325.811C321.401 316.815 321.577 306.063 319.284 302.711C316.991 299.36 304.96 298.698 297.066 298.134C294.909 297.893 292.728 298.259 290.768 299.191C288.807 300.123 287.146 301.584 285.971 303.408V303.408Z" fill="white" stroke="#263238" stroke-width="0.882" stroke-linecap="round" stroke-linejoin="round"/>
<path d="M250.356 333.44L256.706 365.157L248.503 344.068" stroke="#263238" stroke-width="0.882" stroke-linecap="round" stroke-linejoin="round"/>
<path d="M286.853 311.911C286.853 311.911 289.322 325.661 291.616 336.236C292.876 342.256 294.647 348.157 296.908 353.876C296.908 353.876 308.55 334.305 311.902 324.082C313.805 318.442 315.279 312.666 316.312 306.804H286.853V311.911Z" stroke="#263238" stroke-width="0.882" stroke-linecap="round" stroke-linejoin="round"/>
<path d="M299.721 316.638L293.38 324.576L297.79 333.043L293.45 343.548C294.407 347.042 295.561 350.478 296.908 353.841C296.908 353.841 300.541 347.737 304.325 340.611L301.141 333.264L305.022 324.444L299.721 316.638Z" fill="#82AAE3" stroke="#263238" stroke-width="0.882" stroke-linecap="round" stroke-linejoin="round"/>
<path d="M286.853 306.795V311.911C286.853 311.911 288.555 321.401 290.443 330.671L299.368 321.251L308.779 331.676C309.957 329.201 310.996 326.663 311.893 324.073C313.796 318.433 315.271 312.657 316.303 306.795H286.853Z" fill="white" stroke="#263238" stroke-width="0.882" stroke-linecap="round" stroke-linejoin="round"/>
<path d="M209.987 384.305C209.987 384.305 226.454 378.29 235.335 392.922" stroke="#263238" stroke-width="0.882" stroke-linecap="round" stroke-linejoin="round"/>
<path d="M235.626 388.406C235.626 388.406 226.427 390.488 221.514 398.329C216.602 406.17 226.595 407.043 229.355 407.043C232.116 407.043 234.727 405.191 234.877 404.23C235.027 403.268 238.643 393.972 238.502 391.802C238.485 390.992 238.19 390.212 237.667 389.594C237.143 388.976 236.423 388.556 235.626 388.406Z" fill="white" stroke="#263238" stroke-width="0.882" stroke-linecap="round" stroke-linejoin="round"/>
<path d="M231.393 391.652C231.393 391.652 226.304 396.062 226.648 397.826C226.992 399.59 234.541 406.382 235.997 405.403C236.259 405.269 236.493 405.085 236.684 404.861C236.876 404.637 237.021 404.378 237.112 404.097C237.203 403.817 237.238 403.522 237.214 403.228C237.191 402.934 237.11 402.648 236.976 402.386C236.561 401.725 231.393 391.652 231.393 391.652Z" fill="white" stroke="#263238" stroke-width="0.882" stroke-linecap="round" stroke-linejoin="round"/>
<path d="M226.674 397.782C226.674 397.782 223.684 400.966 224.663 402.422C225.642 403.877 232.478 407.59 234.25 406.47C236.023 405.35 234.877 404.203 234.877 404.203L226.674 397.782Z" fill="white" stroke="#263238" stroke-width="0.882" stroke-linecap="round" stroke-linejoin="round"/>
<path d="M244.191 391.485L238.069 390.426L239.507 399.237L245.76 399.431L244.191 391.485Z" fill="white" stroke="#263238" stroke-width="0.882" stroke-linecap="round" stroke-linejoin="round"/>
<path d="M233.174 377.628L240.345 402.757L243.829 405.923V401.451L236.244 376.755C236.182 376.55 236.079 376.359 235.942 376.194C235.804 376.03 235.634 375.895 235.443 375.797C235.252 375.7 235.043 375.643 234.829 375.628C234.615 375.614 234.4 375.643 234.197 375.714V375.714C233.817 375.846 233.5 376.116 233.311 376.471C233.121 376.826 233.072 377.239 233.174 377.628V377.628Z" fill="#263238" stroke="#263238" stroke-width="0.882" stroke-linecap="round" stroke-linejoin="round"/>
<path d="M235.626 388.406C235.626 388.406 231.393 390.885 231.816 392.763C232.239 394.642 236.808 403.427 238.457 403.541C240.107 403.656 241.103 402.659 240.865 400.754C240.627 398.849 239.101 391.934 238.069 390.426C237.037 388.918 236.923 388.318 235.626 388.406Z" fill="white" stroke="#263238" stroke-width="0.882" stroke-linecap="round" stroke-linejoin="round"/>
<path d="M244.19 391.485C244.19 391.485 248.697 392.049 249.482 393.425C250.267 394.801 247.119 400.287 246.113 401.539C245.108 402.792 243.308 402.739 243.256 399.564C243.34 396.849 243.653 394.147 244.19 391.485V391.485Z" fill="white" stroke="#263238" stroke-width="0.882" stroke-linecap="round" stroke-linejoin="round"/>
<path d="M219.812 402.095H269.266C270.648 402.097 271.972 402.647 272.949 403.624C273.926 404.601 274.476 405.926 274.478 407.308V407.308C274.478 408.477 274.014 409.599 273.187 410.426C272.36 411.253 271.238 411.718 270.068 411.718H220.5C219.424 411.718 218.392 411.29 217.631 410.529C216.87 409.768 216.443 408.736 216.443 407.66V405.455C216.443 405.013 216.53 404.576 216.699 404.167C216.869 403.759 217.117 403.388 217.43 403.076C217.743 402.764 218.115 402.517 218.523 402.348C218.932 402.18 219.37 402.094 219.812 402.095V402.095Z" fill="white" stroke="#263238" stroke-width="0.882" stroke-linecap="round" stroke-linejoin="round"/>
<path d="M307.818 390.726C307.818 390.726 294.95 389.315 291.774 388.257C288.599 387.198 283.484 386.316 281.72 387.727C279.956 389.139 271.321 399.193 271.136 400.419C270.95 401.645 269.195 405.711 270.077 406.77C270.816 407.507 271.725 408.052 272.723 408.357C272.723 408.357 284.189 411.533 285.415 411.709C286.641 411.885 298.46 411.356 298.46 411.356L304.634 409.063L313.269 408.887C313.269 408.887 313.445 411.709 313.622 404.829C313.798 397.95 307.818 390.726 307.818 390.726Z" fill="white" stroke="#263238" stroke-width="0.882" stroke-linecap="round" stroke-linejoin="round"/>
<path d="M272.75 408.366C272.75 408.366 272.926 404.309 273.808 402.545C274.69 400.781 284.736 391.793 284.736 391.793" stroke="#263238" stroke-width="0.882" stroke-linecap="round" stroke-linejoin="round"/>
<path d="M276.066 409.407C276.066 409.407 277.83 404.997 278.536 404.644C279.241 404.291 287.523 398.999 287.523 398.999" stroke="#263238" stroke-width="0.882" stroke-linecap="round" stroke-linejoin="round"/>
<path d="M282.09 410.642C282.09 410.642 282.443 408.878 283.325 408.525C284.207 408.172 291.616 404.821 291.616 404.821" stroke="#263238" stroke-width="0.882" stroke-linecap="round" stroke-linejoin="round"/>
<path d="M290.028 411.524L293.38 410.642L293.027 409.054L289.499 409.936" stroke="#263238" stroke-width="0.882" stroke-linecap="round" stroke-linejoin="round"/>
<path d="M348.205 333.943C348.205 333.943 338.864 353.515 339.385 360.403C339.905 367.291 342.216 378.731 342.216 378.731C342.216 378.731 327.407 384.543 322.292 386.669C317.176 388.795 307.818 390.726 307.818 390.726L312.572 409.416L311.875 411.356H363.172C363.172 411.356 367.053 410.65 367.759 409.768C368.464 408.886 369.17 408.534 369.523 405.711C369.876 402.889 372.169 378.211 371.64 371.313C371.11 364.416 363.878 328.651 362.996 324.947C362.114 321.242 360.535 318.773 358.948 317.891C357.36 317.009 350.48 316.312 350.48 316.312" fill="white"/>
<path d="M348.205 333.943C348.205 333.943 338.864 353.515 339.385 360.403C339.905 367.291 342.216 378.731 342.216 378.731C342.216 378.731 327.407 384.543 322.292 386.669C317.176 388.795 307.818 390.726 307.818 390.726L312.572 409.416L311.875 411.356H363.172C363.172 411.356 367.053 410.65 367.759 409.768C368.464 408.886 369.17 408.534 369.523 405.711C369.876 402.889 372.169 378.211 371.64 371.313C371.11 364.416 363.878 328.651 362.996 324.947C362.114 321.242 360.535 318.773 358.948 317.891C357.36 317.009 350.48 316.312 350.48 316.312" stroke="#263238" stroke-width="0.882" stroke-linecap="round" stroke-linejoin="round"/>
<path d="M343.451 379.084C343.451 379.084 357.025 379.789 363.737 384.014" stroke="#263238" stroke-width="0.882" stroke-linecap="round" stroke-linejoin="round"/>
<path d="M345.912 377.32C345.912 377.32 355.437 376.791 360.553 378.378" stroke="#263238" stroke-width="0.882" stroke-linecap="round" stroke-linejoin="round"/>
<path d="M343.274 333.396C343.274 333.396 338.512 344.509 338.335 348.743C338.159 352.976 337.806 355.446 337.806 355.446" stroke="#263238" stroke-width="0.882" stroke-linecap="round" stroke-linejoin="round"/>
<path d="M321.586 303.973C321.586 303.973 332.338 319.284 323.694 361.982" stroke="#263238" stroke-width="1.764" stroke-linecap="round" stroke-linejoin="round"/>
<path d="M328.81 363.217C328.81 362.17 328.499 361.147 327.918 360.276C327.336 359.406 326.51 358.728 325.543 358.327C324.576 357.927 323.512 357.822 322.485 358.026C321.459 358.23 320.516 358.734 319.776 359.475C319.035 360.215 318.531 361.158 318.327 362.184C318.123 363.211 318.228 364.275 318.628 365.242C319.029 366.209 319.707 367.035 320.578 367.617C321.448 368.198 322.471 368.509 323.518 368.509C324.921 368.509 326.267 367.951 327.26 366.959C328.252 365.966 328.81 364.62 328.81 363.217V363.217Z" fill="white" stroke="#263238" stroke-width="0.882" stroke-linecap="round" stroke-linejoin="round"/>
<path d="M284.886 305.56C284.886 305.56 279.426 309.088 278.544 323.368" stroke="#263238" stroke-width="1.764" stroke-linecap="round" stroke-linejoin="round"/>
<path d="M286.13 345.003C284.798 354.635 282.981 364.98 282.602 367.247C281.72 372.098 275.96 373.792 272.256 372.204" stroke="#263238" stroke-width="1.764" stroke-linecap="round" stroke-linejoin="round"/>
<path d="M272.317 345.638C271.109 340.24 270.368 335.557 270.633 333.414C271.868 323.544 278.571 323.368 278.571 323.368C278.571 323.368 286.509 324.426 287.029 332.893C287.084 336.948 286.789 340.999 286.147 345.003" stroke="#263238" stroke-width="1.764" stroke-linecap="round" stroke-linejoin="round"/>
<path d="M287.206 371.499C287.206 371.499 283.501 373.615 281.032 372.204C279.365 371.252 274.858 356.893 272.318 345.638" stroke="#263238" stroke-width="1.764" stroke-linecap="round" stroke-linejoin="round"/>
<path d="M288.496 369.587L287.039 370.215C286.336 370.518 286.012 371.333 286.315 372.035L286.333 372.076C286.635 372.778 287.45 373.102 288.152 372.799L289.61 372.171C290.313 371.868 290.636 371.053 290.334 370.351L290.316 370.31C290.013 369.608 289.199 369.284 288.496 369.587Z" stroke="#263238" stroke-width="0.882" stroke-linecap="round" stroke-linejoin="round"/>
<path d="M272.713 370.543L271.352 369.726C270.696 369.332 269.846 369.544 269.452 370.2L269.429 370.238C269.036 370.893 269.248 371.744 269.903 372.138L271.264 372.955C271.92 373.349 272.771 373.137 273.164 372.481L273.187 372.443C273.581 371.788 273.369 370.937 272.713 370.543Z" stroke="#263238" stroke-width="0.882" stroke-linecap="round" stroke-linejoin="round"/>
<path d="M278.571 262.898C278.571 262.898 275.748 269.592 276.278 273.826C276.807 278.06 282.452 282.646 282.452 282.646C282.452 282.646 284.392 263.78 284.392 263.074C284.392 262.369 280.855 260.781 278.571 262.898Z" fill="#263238" stroke="#263238" stroke-width="0.882" stroke-linecap="round" stroke-linejoin="round"/>
<path d="M276.542 286.88L280.291 284.26" stroke="#263238" stroke-width="1.764" stroke-linecap="round" stroke-linejoin="round"/>
<path d="M280.679 264.133C280.679 264.133 279.973 282.822 280.326 286.341C280.679 289.861 282.09 301.15 283.325 304.678C284.56 308.206 288.617 319.487 291.792 320.722C294.967 321.957 301.309 322.839 303.426 321.427C305.542 320.016 313.295 314.733 315.412 309.617C316.667 306.634 317.498 303.49 317.882 300.277C319.642 299.338 321.162 298.006 322.324 296.385C323.487 294.763 324.26 292.896 324.585 290.928C325.643 284.225 322.821 282.293 322.821 282.293L322.997 270.651C322.997 270.651 321.057 262.545 315.941 258.135C310.826 253.725 304.837 253.372 298.663 256.724C292.489 260.075 280.679 264.133 280.679 264.133Z" fill="white" stroke="#263238" stroke-width="0.882" stroke-linecap="round" stroke-linejoin="round"/>
<path d="M313.824 263.074C313.824 263.074 314.001 258.488 309.6 260.075C305.198 261.663 304.131 264.662 297.604 267.308C291.078 269.954 282.443 266.955 279.453 265.191C276.463 263.427 274.337 260.957 278.394 256.371C282.452 251.785 291.968 247.207 302.208 247.207C312.448 247.207 320.369 255.665 323.72 259.193C327.072 262.721 327.601 267.131 326.366 270.298C325.132 273.464 322.838 282.293 322.838 282.293C322.838 282.293 321.427 282.117 320.898 284.225C320.369 286.333 320.545 288.635 318.252 288.811C315.959 288.987 316.135 282.822 316.135 282.822C316.135 282.822 310.499 281.058 309.794 277.001C309.088 272.944 313.824 266.955 313.824 263.074Z" fill="#263238" stroke="#263238" stroke-width="0.882" stroke-linecap="round" stroke-linejoin="round"/>
<path d="M292.824 289.755L276.516 286.88L277.46 294.191C277.518 294.646 277.721 295.07 278.038 295.4C278.356 295.731 278.771 295.95 279.224 296.026L289.137 297.587C289.682 297.675 290.24 297.548 290.693 297.232C291.146 296.915 291.458 296.436 291.563 295.894L292.824 289.755Z" stroke="#263238" stroke-width="1.764" stroke-linecap="round" stroke-linejoin="round"/>
<path d="M295.796 290.063L314.706 289.517L312.854 296.361C312.695 296.822 312.39 297.219 311.986 297.492C311.583 297.766 311.101 297.901 310.614 297.878L299.148 298.037C298.554 298.078 297.964 297.903 297.488 297.545C297.012 297.187 296.681 296.67 296.555 296.088L295.796 290.063Z" stroke="#263238" stroke-width="1.764" stroke-linecap="round" stroke-linejoin="round"/>
<path d="M292.85 289.755L295.796 290.063" stroke="#263238" stroke-width="1.764" stroke-linecap="round" stroke-linejoin="round"/>
<path d="M314.706 289.517L320.88 284.225" stroke="#263238" stroke-width="1.764" stroke-linecap="round" stroke-linejoin="round"/>
<path d="M298.31 287.929C298.31 287.929 303.602 283.881 308.541 286.342" stroke="#263238" stroke-width="1.764" stroke-linecap="round" stroke-linejoin="round"/>
<path d="M290.381 287.047C290.381 287.047 286.324 282.637 281.737 285.636" stroke="#263238" stroke-width="1.764" stroke-linecap="round" stroke-linejoin="round"/>
<path d="M291.439 302.385C291.439 302.385 290.557 306.089 291.439 306.795C292.941 307.624 294.674 307.934 296.37 307.677" stroke="#263238" stroke-width="0.882" stroke-linecap="round" stroke-linejoin="round"/>
<path d="M288.793 309.582C288.793 309.582 292.321 312.228 295.673 312.405C299.024 312.581 302.896 310.111 302.896 310.111" stroke="#263238" stroke-width="0.882" stroke-linecap="round" stroke-linejoin="round"/>
<path d="M301.838 291.634C301.838 291.634 303.955 294.103 307.483 291.457" stroke="#263238" stroke-width="0.882" stroke-linecap="round" stroke-linejoin="round"/>
<path d="M284.471 290.549C284.471 290.549 286.236 293.283 290.081 291.14" stroke="#263238" stroke-width="0.882" stroke-linecap="round" stroke-linejoin="round"/>
<path d="M175.077 263.056C175.077 263.056 176.197 279.859 175.35 281.261L172.872 285.459C172.872 285.459 173.992 297.507 171.752 298.901C170.016 299.83 168.112 300.403 166.151 300.585C166.151 300.585 163.911 309.547 163.064 310.667C162.217 311.787 157.181 315.43 155.505 315.959C153.83 316.488 148.502 316.841 135.899 309.238C123.295 301.635 118.532 299.157 118.814 294.958C119.096 290.76 119.696 285.997 119.696 285.997C119.696 285.997 121.099 265.826 123.621 259.67C126.144 253.513 158.072 250.144 165.075 251.829C172.078 253.513 175.077 263.056 175.077 263.056Z" fill="white" stroke="#263238" stroke-width="0.882" stroke-linecap="round" stroke-linejoin="round"/>
<path d="M142.584 290.778L144.551 292.18C144.551 292.18 142.866 298.901 143.669 301.988" stroke="#263238" stroke-width="0.882" stroke-linecap="round" stroke-linejoin="round"/>
<path d="M170.588 285.15C170.305 286.438 169.626 287.373 169.079 287.25C168.533 287.126 168.312 285.997 168.603 284.709C168.894 283.422 169.565 282.487 170.111 282.61C170.658 282.734 170.879 283.872 170.588 285.15Z" fill="#263238"/>
<path d="M167.73 280.008C167.73 280.008 170.782 276.957 173.331 279.841" stroke="#263238" stroke-width="0.882" stroke-linecap="round" stroke-linejoin="round"/>
<path d="M163.876 260.816C163.876 260.816 167.509 267.537 167.236 268.939C166.963 270.342 155.47 273.702 155.47 273.702C155.47 273.702 154.35 280.423 152.665 281.261L150.99 282.099C149.646 280.274 148.518 278.3 147.629 276.216C145.671 272.018 142.866 270.924 139.788 275.096C136.71 279.268 139.224 289.102 140.908 289.94L142.584 290.778C142.584 290.778 141.182 292.18 135.863 293.027C130.545 293.874 126.62 294.985 122.704 293.865C118.788 292.745 113.178 282.099 111.238 268.375C109.297 254.651 115.436 242.894 123.586 239.269C131.736 235.644 150.196 238.987 151.589 239.825C152.983 240.663 162.517 236.191 168.118 238.987C173.719 241.783 173.41 244.87 174.839 246.828C176.268 248.786 183.518 246.272 184.082 253.275C184.647 260.278 181.842 264.476 178.199 265.032C174.557 265.588 163.876 260.816 163.876 260.816Z" fill="#263238" stroke="#263238" stroke-width="0.882" stroke-linecap="round" stroke-linejoin="round"/>
<path d="M97.558 304.784C97.558 304.784 70.7188 319.099 65.6032 321.93C60.4876 324.761 59.7202 327.301 59.4292 329.868C59.1381 332.435 59.4292 418.818 59.4292 418.818H204.404C204.404 418.818 182.415 352.8 181.692 345.427C180.969 338.053 179.399 324.973 177.353 323.438C175.306 321.904 146.412 309.123 146.412 309.123C146.412 309.123 139.506 301.715 123.154 301.715C106.801 301.715 97.558 304.784 97.558 304.784Z" fill="#82AAE3" stroke="#263238" stroke-width="0.882" stroke-linecap="round" stroke-linejoin="round"/>
<path d="M114.175 357.378C114.933 357.678 115.701 357.951 116.468 358.207" stroke="#263238" stroke-width="0.882" stroke-linecap="round" stroke-linejoin="round"/>
<path d="M85.554 333.669C85.554 333.669 96.138 348.434 110.594 355.719" stroke="#263238" stroke-width="0.882" stroke-linecap="round" stroke-linejoin="round"/>
<path d="M94.7444 350.789C94.7444 350.789 100.619 356.672 112.887 359.997" stroke="#263238" stroke-width="0.882" stroke-linecap="round" stroke-linejoin="round"/>
<path d="M167.58 329.604C163.496 334.243 157.746 341.66 155.841 348.487" stroke="#263238" stroke-width="0.882" stroke-linecap="round" stroke-linejoin="round"/>
<path d="M171.937 324.973C171.937 324.973 171.126 325.758 169.856 327.107" stroke="#263238" stroke-width="0.882" stroke-linecap="round" stroke-linejoin="round"/>
<path d="M157.366 340.311C157.366 340.311 153.53 347.72 152.771 352.324" stroke="#263238" stroke-width="0.882" stroke-linecap="round" stroke-linejoin="round"/>
<path d="M96.0233 306.054C96.0233 306.054 110.85 305.543 124.909 305.798C138.968 306.054 148.176 310.402 148.176 310.402C148.176 310.402 139.735 300.18 135.907 297.878C132.079 295.576 120.314 291.704 110.603 294.809C104.621 296.818 99.4864 300.778 96.0233 306.054Z" fill="#82AAE3" stroke="#263238" stroke-width="0.882" stroke-linecap="round" stroke-linejoin="round"/>
<path d="M53.8638 418.72L40.3515 366.912C40.2204 366.283 40.2312 365.632 40.3831 365.008C40.5351 364.383 40.8243 363.801 41.2299 363.302C41.6354 362.804 42.147 362.402 42.7275 362.126C43.3079 361.85 43.9425 361.708 44.5851 361.708H152.092C153.08 361.709 154.038 362.047 154.808 362.666C155.577 363.285 156.113 364.148 156.326 365.113L168.259 418.773" fill="#263238"/>
<path d="M53.8638 418.72L40.3515 366.912C40.2204 366.283 40.2312 365.632 40.3831 365.008C40.5351 364.383 40.8243 363.801 41.2299 363.302C41.6354 362.804 42.147 362.402 42.7275 362.126C43.3079 361.85 43.9425 361.708 44.5851 361.708H152.092C153.08 361.709 154.038 362.047 154.808 362.666C155.577 363.285 156.113 364.148 156.326 365.113L168.259 418.773" stroke="#263238" stroke-width="0.882" stroke-linecap="round" stroke-linejoin="round"/>
</svg>
