<svg width="500" height="500" viewBox="0 0 500 500" fill="none" xmlns="http://www.w3.org/2000/svg">
<g clip-path="url(#clip0_44_2)">
<path d="M550 -50H-50V550H550V-50Z" fill="white"/>
<path d="M550 -50H-50V550H550V-50Z" fill="white"/>
<path d="M550 -50H-50V550H550V-50Z" fill="white"/>
<mask id="mask0_44_2" style="mask-type:alpha" maskUnits="userSpaceOnUse" x="-50" y="-50" width="600" height="600">
<path d="M550 -50H-50V550H550V-50Z" fill="black" fill-opacity="0.6784"/>
</mask>
<g mask="url(#mask0_44_2)">
<path fill-rule="evenodd" clip-rule="evenodd" d="M250.464 311.458C248.437 319.49 245.609 335.156 254.786 339.839C264.766 344.922 280.432 331.615 287.604 326.01C292.927 321.844 298.01 317.443 303.068 312.969C305.359 310.943 307.531 308.771 309.755 306.672C311.609 304.922 312.208 307.729 311.661 308.896C310.687 310.99 307.089 313.167 305.396 314.729C302.995 316.943 300.536 319.073 298.047 321.188C293.651 324.927 289.156 328.51 284.458 331.87C277.74 336.672 257.568 350.906 250.104 340.573C246.125 335.063 245.693 328.214 246.24 321.599C246.437 319.182 246.016 306.969 250.464 311.458Z" fill="#14354D"/>
<path fill-rule="evenodd" clip-rule="evenodd" d="M255.781 309.391C266.151 305.906 261.026 289.958 250.589 293.333C240.151 296.708 245.328 312.635 255.781 309.391Z" fill="#82AAE3"/>
<path d="M260.635 298.911C261.286 301.198 261.026 303.432 259.76 305.469C258.745 307.094 255.073 308.427 255.984 310.021C260.719 308.479 263.406 303.229 261.891 298.505L260.635 298.911Z" fill="#14354D"/>
<path d="M250.792 293.958C252.828 293.375 254.854 293.495 256.76 294.448C258.578 295.365 260.396 299.375 261.891 298.505C260.297 293.833 255.12 291.182 250.385 292.703L250.792 293.958Z" fill="#14354D"/>
<path d="M245.708 303.734C245.042 301.255 245.396 298.75 246.979 296.661C248.063 295.234 251.354 294.401 250.385 292.703C245.656 294.245 243.01 299.422 244.453 304.141L245.708 303.734Z" fill="#14354D"/>
<path d="M255.578 308.766C253.281 309.422 251.042 309.162 249.005 307.901C247.38 306.896 246.052 303.229 244.453 304.141C245.99 308.859 251.24 311.542 255.979 310.021C255.849 309.599 255.714 309.182 255.578 308.766Z" fill="#14354D"/>
<path fill-rule="evenodd" clip-rule="evenodd" d="M254.62 305.266C259.63 303.563 257.162 295.839 252.089 297.432C246.917 299.057 249.464 306.844 254.62 305.266Z" fill="#14354D"/>
<path fill-rule="evenodd" clip-rule="evenodd" d="M249.365 308.87C248.563 309.943 248.63 310.682 249.943 310.932C250.667 309.896 250.583 309.162 249.365 308.87Z" fill="#82AAE3"/>
<path d="M248.99 309.854L249.344 310.693C250.146 309.62 250.078 308.88 248.766 308.63C248.406 309.729 248.099 309.99 248.505 311.052C248.386 310.771 248.271 310.495 248.151 310.214L247.912 310.813C248.11 310.891 248.307 310.969 248.505 311.052L248.99 309.854Z" fill="#14354D"/>
<path d="M249.344 310.693L250.182 310.339C249.787 310.177 249.391 310.016 248.99 309.854L248.505 311.052C249.526 311.188 249.526 311.531 250.542 311.172L249.703 311.531L250.328 311.849L250.542 311.172C250.141 311.01 249.745 310.854 249.344 310.693Z" fill="#14354D"/>
<path d="M250.24 309.969C250.12 309.693 250 309.412 249.886 309.135C249.141 310.214 249.255 310.938 250.542 311.172C250.849 310.094 251.136 309.807 250.724 308.776C250.839 309.057 250.959 309.333 251.078 309.615L251.318 309.016L250.724 308.776L250.24 309.969Z" fill="#14354D"/>
<path d="M249.964 309.109L249.125 309.469L250.24 309.969C251.057 308.458 250.073 308.177 248.766 308.63L249.604 308.271L249.062 307.927L248.766 308.63C249.167 308.792 249.563 308.948 249.964 309.109Z" fill="#14354D"/>
<path fill-rule="evenodd" clip-rule="evenodd" d="M312.099 293.609C310.698 298 310.109 306.083 316.589 306.292C319.349 306.38 330.125 304.839 327.432 300.771C324.427 302.297 318.443 305.417 315.167 303.089C311.448 300.453 316.693 293.953 312.099 293.609Z" fill="#82AAE3"/>
<path d="M328.063 302.729C324.396 304.812 319.156 306.849 314.828 305.698C310.12 304.443 311.24 297.063 312.386 293.693L311.813 293.531C310.672 297.339 309.604 304.651 314.667 306.141C316.792 306.766 328.807 305.229 328.063 302.729Z" fill="#14354D"/>
<path d="M327.505 301.005C327.182 301.422 327.63 302.594 328.266 303.354C328.427 302.297 328.094 301.229 327.354 300.536L327.745 300.667C327.234 300.151 327.469 300.615 327.505 301.005Z" fill="#14354D"/>
<path d="M314.281 294.724C312.193 294.844 313.198 302.74 316.177 303.802C319.734 305.068 324.448 302.563 327.505 301.005L327.354 300.536C324.287 302.094 320.5 303.859 316.979 303.323C311.031 302.427 316.021 296.979 314.547 294.333C314.297 293.885 314.422 294.557 314.281 294.724Z" fill="#14354D"/>
<path d="M312.391 293.688C312.458 293.938 313.167 294.464 314.281 294.724L314.448 294.151C313.531 293.76 312.703 293.391 311.818 293.531C311.917 293.026 312.198 293.766 311.974 293.219C311.61 293.745 312.057 293.51 312.391 293.688Z" fill="#14354D"/>
<path fill-rule="evenodd" clip-rule="evenodd" d="M311.349 306.313C312.891 303.609 314.714 305.828 312.099 307.281C311.844 306.984 311.531 306.662 311.349 306.313Z" fill="#82AAE3"/>
<path d="M313.167 304.688C312.453 304.844 311.698 305.422 311.198 306.104L311.505 306.521C312.479 305.688 312.932 305.193 313.167 304.688C312.323 304.261 313.167 304.708 313.167 304.688Z" fill="#14354D"/>
<path d="M313.787 305.266C313.474 305.057 313.484 304.557 312.745 304.995C313.547 305.995 313.667 305.271 313.787 305.266Z" fill="#14354D"/>
<path d="M311.99 307.49C313.078 307.104 313.761 306.312 313.787 305.266C313.401 305.714 312.505 306.542 311.99 307.49Z" fill="#14354D"/>
<path d="M311.193 306.104C311.432 306.609 311.359 307.047 311.99 307.49C311.901 306.547 311.625 306.604 311.505 306.521L311.193 306.104C310.943 306.641 311.313 306.365 311.193 306.104Z" fill="#14354D"/>
<path fill-rule="evenodd" clip-rule="evenodd" d="M311.552 293.526C315.511 294.958 315.057 294.755 316.948 291.281C318.391 288.625 319.75 285.917 321.156 283.24C323.688 278.417 326.495 274.099 330.162 270.031C337.891 261.464 347.693 257.771 357.255 251.818C366.896 245.812 374.464 238.552 381.667 229.719C385.391 225.146 389.177 220.484 392.172 215.385C394.589 211.271 397.552 203.083 403.787 204.182C407.276 204.797 412.266 211.948 415.365 210.734C420.156 208.859 411.771 203.979 410.245 202.958C397.948 194.698 392.615 207.771 386.807 216.333C381.401 224.297 375.479 231.917 368.604 238.656C360.74 246.365 351.703 250.073 342.438 255.682C327.578 264.672 318.589 277.995 311.552 293.526Z" fill="#14354D"/>
<path d="M314.886 294.703C314.651 294.359 312.787 293.656 311.636 293.24L311.474 293.813C312.735 294.271 314.099 294.885 315.297 294.911C314.938 295.021 314.912 295.12 315.219 295.198C315.427 294.76 315.141 294.906 314.886 294.703Z" fill="#14354D"/>
<path d="M322.703 279.714C320.135 284.724 317.412 289.667 314.885 294.703L315.302 294.912C317.01 291.51 323.427 282.839 322.703 279.714Z" fill="#14354D"/>
<path d="M343.74 258.896C335.234 262.896 326.948 271.318 322.703 279.714L323.12 279.922C325.453 275.885 328.521 272.068 331.714 268.667C333.63 266.63 335.745 264.828 337.911 263.078C339.365 261.906 343.349 260.224 343.74 258.896Z" fill="#14354D"/>
<path d="M364.266 247.24C357.813 251.698 350.688 255.286 343.74 258.896L343.891 259.365C346.953 257.776 364.448 250.151 364.266 247.24Z" fill="#14354D"/>
<path d="M394.542 210.458C391.297 217.568 386.047 224.24 380.943 230.12C375.828 236.01 370.693 242.703 364.266 247.245L364.573 247.661C371.073 243.073 376.568 236.245 381.656 230.198C383.839 227.604 396.531 213.26 394.542 210.458Z" fill="#14354D"/>
<path d="M402.802 203.807C399.547 203.969 395.787 207.292 394.542 210.458L394.953 210.672C395.99 208.677 397.349 207.135 399.151 205.807C400.344 204.932 402.406 204.604 402.802 203.807Z" fill="#14354D"/>
<path d="M413.724 210.49C411.182 208.005 406.474 203.974 402.802 203.807C404.078 205.146 412.229 210.62 413.724 210.49Z" fill="#14354D"/>
<path d="M416.87 208.693C416.125 209.167 415.037 211.042 413.302 210.797C415.057 212.125 416.849 210.052 417.292 208.385C417.448 208.412 417.328 208.474 416.87 208.693Z" fill="#14354D"/>
<path d="M410.062 203.193C412.458 204.797 414.859 206.63 416.87 208.693L417.292 208.38C415.953 206.964 411.531 202.37 410.062 203.193Z" fill="#14354D"/>
<path d="M397.787 201.708C402.422 200.115 406.016 200.125 410.063 203.193C410.188 203.037 410.307 202.88 410.432 202.724C408.198 201.141 398.985 197.49 397.787 201.708Z" fill="#14354D"/>
<path d="M389.271 212.943C390.88 209.094 393.99 203.708 397.786 201.708L397.63 201.24C395.307 202.302 387.609 211.359 389.271 212.943Z" fill="#14354D"/>
<path d="M375.958 231.349C380.656 225.625 385.729 219.458 389.271 212.943C389.078 212.891 388.886 212.833 388.693 212.781C387.177 215.839 374.828 229.464 375.958 231.349Z" fill="#14354D"/>
<path d="M362.198 244.88C367.083 240.745 371.823 236.224 375.958 231.349L375.49 230.979C373.604 233.542 371.146 235.667 368.938 237.943C367.37 239.557 362.208 243.135 362.198 244.88Z" fill="#14354D"/>
<path d="M344.797 254.662C350.776 251.729 356.724 248.688 362.198 244.88C362.099 244.74 361.995 244.604 361.891 244.464C359.208 246.287 356.484 248.083 353.62 249.604C351.724 250.604 345.182 253.021 344.797 254.662Z" fill="#14354D"/>
<path d="M326.833 268.599C330.75 263.537 338.75 257.432 344.797 254.662L344.646 254.188C341.875 255.495 325.578 266.198 326.833 268.599Z" fill="#14354D"/>
<path d="M311.636 293.24C312.724 293.146 316.245 284.318 317.328 282.401C320.073 277.547 323.188 272.828 326.833 268.599L326.37 268.229C322.787 272.385 319.953 276.932 317.219 281.667C315.391 284.823 311.547 290.307 311.474 293.813C311.026 293.719 311.662 293.297 311.162 293.656C311.708 294.026 311.438 293.557 311.636 293.24Z" fill="#14354D"/>
<path fill-rule="evenodd" clip-rule="evenodd" d="M328.287 303.693C327.953 302.563 327.615 301.432 327.276 300.297C336.792 298 346.193 296.318 354.958 291.787C365.276 286.458 371.385 277.766 379.339 269.714C387.323 261.625 396.313 256.208 406.479 251.162C411.75 248.547 417.208 246.052 422.807 244.24C426.469 243.057 437.375 241.63 436.787 235.807C436.474 232.714 430.917 223.646 434.198 222.172C437.599 220.641 440.073 230.297 440.604 232.995C442.708 243.677 431.339 245.636 423.948 248.026C404.662 254.255 387.151 264.609 374.505 280.537C363.125 294.865 345.537 300.511 328.287 303.693Z" fill="#14354D"/>
<path d="M327.203 300.063C327.188 301.25 327.688 302.536 328.052 303.771L328.521 303.62C328.188 302.484 327.849 301.354 327.516 300.224C326.979 300.344 327.63 300.286 326.938 300.063C326.885 301.031 327.083 299.958 327.203 300.063Z" fill="#14354D"/>
<path d="M344.125 296.062C338.516 297.125 332.635 298.417 327.203 300.062L327.354 300.531C330.443 299.964 343.26 298.214 344.125 296.062Z" fill="#14354D"/>
<path d="M369.078 280.646C363.167 288.844 352.995 292.333 344.125 296.063L344.281 296.536C348.589 295.542 371.109 285.365 369.078 280.646Z" fill="#14354D"/>
<path d="M385.427 263.333C379.641 268.615 373.938 274.51 369.073 280.646L369.542 281.016C372.167 277.698 375.047 274.521 378.01 271.495C379.672 269.792 385.635 265.13 385.427 263.333Z" fill="#14354D"/>
<path d="M428.49 242.49C420.682 244.193 413.172 247.458 406.073 251.099C399.219 254.609 391.141 258.083 385.427 263.333C385.531 263.474 385.636 263.609 385.74 263.75C391.432 258.521 399.401 255.063 406.224 251.568C409.948 249.661 413.807 247.979 417.682 246.411C419.813 245.552 428.047 243.854 428.49 242.49Z" fill="#14354D"/>
<path d="M436.563 236.333C435.328 239.771 431.761 241.49 428.49 242.49L428.641 242.958C430.875 242.688 438.307 238.526 436.563 236.333Z" fill="#14354D"/>
<path d="M432.714 224.688C434.083 227.135 435.307 235.094 437.135 236.495C436.984 234.537 434.615 224.078 432.714 224.688Z" fill="#14354D"/>
<path d="M436.005 221.458C434.255 221.401 431.922 222.636 432.714 224.688C432.87 222.755 436.109 221.729 436.005 221.458Z" fill="#14354D"/>
<path d="M439.818 229.484C438.672 226.76 437.625 223.943 436.005 221.458L435.583 221.766C436.729 223.38 438.448 229.313 439.818 229.484Z" fill="#14354D"/>
<path d="M438.385 242.234C440.958 238.422 442.151 233.766 439.818 229.484L439.344 229.635C440.099 231.974 440.901 234.24 440.422 236.729C440.089 238.469 437.891 241.115 438.385 242.234Z" fill="#14354D"/>
<path d="M425.068 248.01C429.297 247.557 435.474 245.453 438.386 242.234L437.917 241.865C435.61 244.833 425.724 245.813 425.068 248.01Z" fill="#14354D"/>
<path d="M404.177 256.667C411.057 253.662 417.875 250.214 425.068 248.011C423.651 246.688 404.901 254.682 404.177 256.667Z" fill="#14354D"/>
<path d="M387.927 266.766C392.886 262.87 398.474 259.365 404.182 256.667L404.031 256.193C400.735 257.75 387.995 263.552 387.927 266.766Z" fill="#14354D"/>
<path d="M374.37 281.182C378.438 276.062 382.854 270.927 387.927 266.766C387.823 266.625 387.719 266.484 387.615 266.344C385.172 268.349 373.172 278.906 374.37 281.182Z" fill="#14354D"/>
<path d="M356.349 295.49C362.677 292.073 369.828 286.807 374.37 281.188L373.901 280.818C371.422 283.969 368.094 286.563 364.922 289C362.948 290.516 356.776 293.531 356.349 295.49Z" fill="#14354D"/>
<path d="M328.052 303.771C332.38 304.13 338 302.099 342.198 300.906C347.063 299.521 351.932 298.021 356.349 295.49L356.198 295.021C351.511 297.708 346.146 299.266 340.979 300.74C337.844 301.63 329.542 302.177 327.974 303.797C328.318 304.073 328.5 303.797 328.052 303.771Z" fill="#14354D"/>
<path fill-rule="evenodd" clip-rule="evenodd" d="M365.943 246.266C367.651 248.078 369.443 249.844 371.083 251.703C365.333 254.896 367.104 265.458 374.458 261.516C375.979 260.703 377.177 259.677 378.432 258.511C379.135 257.859 380.24 259.609 380.813 260.063C381.729 260.781 383.719 262.13 384.229 263.115C385.172 264.932 384.703 264.63 382.891 266.484C382.089 265.615 379.151 261.88 378.26 262.693C375.537 265.188 371.448 266.792 367.979 264.646C364.865 262.719 363.849 258.531 365.021 255.219C365.625 253.511 366.912 252.792 366.495 251.193C366.224 250.167 364.406 248.672 363.682 247.865C364.401 247.359 365.146 246.63 365.943 246.266Z" fill="#82AAE3"/>
<path d="M371.161 251.938C370.677 250.042 367.74 247.792 366.156 246.115L365.734 246.422C367.469 248.26 369.823 250.464 371.161 251.938Z" fill="#14354D"/>
<path d="M378.536 258.12C376.781 259.776 372.26 263.974 369.25 261.594C366.042 259.057 368.25 253.682 371.161 251.938L371.01 251.464C367.807 253.25 365.276 259.297 368.932 261.958C371.464 263.797 379.781 259.724 378.536 258.12Z" fill="#14354D"/>
<path d="M385.391 264.292C384.75 262.531 380.464 258.635 378.537 258.12C379.636 259.412 383.849 264.01 385.083 263.875L385.391 264.292C385.823 263.464 385.391 264.297 385.391 264.292Z" fill="#14354D"/>
<path d="M382.682 266.641C383.693 266.229 384.526 265.182 385.391 264.292C385.287 264.156 385.188 264.016 385.083 263.875C384.078 264.901 382.922 266.068 382.682 266.641C383.51 267.068 382.682 266.651 382.682 266.641Z" fill="#14354D"/>
<path d="M378.833 262.521C379.573 263.823 381.479 265.333 382.682 266.641L383.104 266.333C382.068 265.208 379.005 261.776 378.833 262.521Z" fill="#14354D"/>
<path d="M366.776 251.797C360.037 260.599 370.766 271.344 378.833 262.521L378.526 262.099C375.38 265.516 369.99 266.792 366.625 263.005C365.083 261.271 364.37 258.781 364.985 256.495C365.349 255.136 367.271 252.5 366.776 251.797Z" fill="#14354D"/>
<path d="M363.531 247.651C364.016 249.094 365.776 251.141 367.193 252.005C366.401 250.391 364.401 247.995 363.531 247.651C363.073 248.385 363.599 247.672 363.531 247.651Z" fill="#14354D"/>
<path d="M366.156 246.115C365.276 246.349 364.266 246.948 363.531 247.651L363.839 248.073C364.578 247.667 365.484 247.057 366.099 246.479C365.682 245.891 365.844 246.797 366.156 246.115C365.5 245.802 366.094 246.214 366.156 246.115Z" fill="#14354D"/>
<path fill-rule="evenodd" clip-rule="evenodd" d="M414.495 211.276C417.719 207.859 416.203 209.115 419.307 210.589C420.906 211.349 424.302 210.552 422.615 213.844C419.307 220.292 417.172 213.38 414.495 211.276Z" fill="#82AAE3"/>
<path d="M417.266 208.307C416.193 208.953 415.271 210.083 414.344 211.068C414.448 211.208 414.547 211.349 414.651 211.484C415.75 210.323 417.042 209.115 417.266 208.307C416.531 208.109 417.234 208.396 417.266 208.307Z" fill="#14354D"/>
<path d="M419.229 210.354C419.349 210.172 418.125 209.177 417.266 208.307L416.896 208.771C417.86 209.63 418.844 211.016 419.229 210.354Z" fill="#14354D"/>
<path d="M416.562 213.375C415.979 216.333 419.255 217.766 421.656 215.583C424.391 213.094 423.167 209.531 419.229 210.354C420.979 211.583 424.5 211.422 421.557 214.875C420.771 215.807 419.823 216.641 418.547 216.287C416.979 215.849 417.594 212.557 416.562 213.375Z" fill="#14354D"/>
<path d="M414.344 211.068C414.682 212.047 415.698 212.62 416.562 213.375L416.932 212.912C416.198 212.271 415.448 211.646 414.682 211.042L414.651 211.484C414.073 211.354 414.823 210.849 414.078 211.328C414.641 211.906 414.12 211.125 414.344 211.068Z" fill="#14354D"/>
<path fill-rule="evenodd" clip-rule="evenodd" d="M435.719 221.636L432.49 223.458C431.021 220.745 425.229 218.537 430.063 215.677C434.891 212.823 434.125 219.011 435.719 221.636Z" fill="#82AAE3"/>
<path d="M432.255 223.537C433.333 223.375 435.563 222.557 435.641 221.401C434.557 222.016 432.912 222.938 432.724 223.385L432.255 223.537C432.802 224.156 432.255 223.531 432.255 223.537Z" fill="#14354D"/>
<path d="M430.922 221.026C431.24 221.787 431.786 223.198 432.724 223.385C432.208 222.443 431.406 220.156 430.922 221.026Z" fill="#14354D"/>
<path d="M434.464 219.099C439.037 209.125 420.016 220.094 430.922 221.026L430.927 220.505C427.787 219.932 427.537 216.755 430.609 215.761C435.365 214.224 432.672 218.224 434.464 219.099Z" fill="#14354D"/>
<path d="M435.792 221.87C435.714 220.927 435.031 220.036 434.464 219.099L433.995 219.25C434.641 220.328 435.427 221.542 435.792 221.87C436.427 221.318 435.74 221.839 435.792 221.87Z" fill="#14354D"/>
</g>
<mask id="mask1_44_2" style="mask-type:alpha" maskUnits="userSpaceOnUse" x="-50" y="-50" width="600" height="600">
<path d="M550 -50H-50V550H550V-50Z" fill="black" fill-opacity="0.7686"/>
</mask>
<g mask="url(#mask1_44_2)">
<path d="M114.417 262.146C114.318 260.854 113.912 259.599 113.432 258.396C112.958 257.188 110.323 254.214 109.474 253.234C104.74 247.839 100.51 243.849 96.0938 239.302C94.3959 241.026 92.7084 242.734 91.0469 244.432C87.4063 248.151 80.7813 254.719 75.5782 259.823C79.3855 263.849 83.2761 267.797 87.2501 271.662C89.6719 274.01 92.2344 276.401 95.4428 277.448C99.6823 278.833 104.651 278.021 108.063 275.141C109.25 274.13 110.25 272.912 111.234 271.703C112.422 270.255 114.755 266.719 114.417 262.146ZM37.198 219.135C36.4844 217.37 36.2501 215.344 36.9271 213.557C37.2396 212.729 37.5209 211.839 37.9428 211.057C39.8334 207.568 42.3386 204.302 45.724 202.234C49.1094 200.167 53.4844 199.453 57.1094 201.063C58.7136 201.776 60.099 202.891 61.4271 204.037C66.5157 208.422 71.0365 213.417 75.5365 218.406C73.2501 220.526 70.8855 222.63 68.7761 224.865C64.2761 229.63 59.9688 234.771 55.2448 239.344C54.7761 238.922 54.2917 238.516 53.8126 238.104C48.8386 233.849 44.2813 229.104 40.2344 223.958C39.0521 222.464 37.9063 220.906 37.198 219.135Z" fill="#AE7A56"/>
<path d="M111.802 207.943C112.167 208.406 112.526 208.875 112.828 209.38C114.099 211.484 114.417 213.906 114.417 216.365C114.417 220.474 111.641 222.99 109.901 224.906C103.896 231.49 97.2813 238.068 91.047 244.432C85.4688 250.125 72.9011 262.505 69.1511 266.068C67.0938 268.026 65.0053 270.271 63.099 272.38C58.7553 277.193 55.4324 277.578 53.9063 277.823C52.948 277.979 51.9897 278.135 51.0209 278.104C48.4636 278.016 46.1459 276.651 43.9532 275.328C40.7917 273.412 38.3074 270.125 36.9636 266.677C36.6667 265.912 36.422 265.099 36.4636 264.276C36.6147 261.229 37.5782 257.594 39.6095 255.318C40.6095 254.203 49.3595 244.781 53.5886 240.906C58.9792 235.969 63.7553 230.177 68.7761 224.865C71.573 221.896 74.8334 219.162 77.7449 216.307C82.5053 211.641 84.948 209.245 89.7084 204.578C91.8959 202.432 94.7865 201.255 97.823 200.854C105.974 199.787 110.302 206.052 111.802 207.943Z" fill="#CB9163"/>
<path d="M43.5365 219.354C43.7396 219.484 44 219.583 44.2188 219.479C44.4115 219.391 44.5157 219.172 44.5573 218.964C44.7032 218.214 43.9375 216.802 43 217.24C42.0677 217.672 43.0104 219.016 43.5365 219.354ZM48.2084 217.208C48.1979 217.495 48.3282 217.776 48.5052 218C48.7761 218.344 49.1979 218.599 49.6354 218.547C49.7032 218.542 49.7761 218.521 49.8334 218.484C49.8907 218.438 49.9323 218.375 49.9636 218.307C50.1771 217.891 50.1459 217.354 49.8646 216.979C49.4427 216.412 48.2344 216.261 48.2084 217.208ZM48.6875 212.344C48.8907 212.766 49.3229 213.073 49.7865 213.136C49.8698 213.146 49.9532 213.151 50.0209 213.104C50.0938 213.057 50.125 212.969 50.1459 212.891C50.3021 212.224 49.974 211.333 49.2761 211.115C48.474 210.87 48.4219 211.797 48.6875 212.344ZM54.3334 211.682C54.4271 212.068 54.7032 212.391 55.0417 212.583C55.1563 212.646 55.2813 212.698 55.4063 212.672C55.5469 212.646 55.6511 212.521 55.6979 212.386C55.7448 212.25 55.7396 212.104 55.7344 211.964C55.724 211.646 55.6927 211.318 55.5209 211.047C54.9896 210.214 54.1354 210.849 54.3334 211.682ZM60.1719 211.021C60.2084 211.349 60.3698 211.656 60.6146 211.875C60.8021 212.047 61.0834 212.156 61.3125 212.047C61.4844 211.969 61.5834 211.781 61.599 211.599C61.6146 211.412 61.5573 211.224 61.4688 211.057C61.1615 210.49 60.0521 209.875 60.1719 211.021ZM54.6302 218.104C54.8802 218.323 55.3073 218.359 55.5261 218.104C55.6042 218.016 55.6459 217.901 55.6719 217.781C55.7969 217.203 55.2604 216.537 54.6198 216.688C54 216.828 54.2657 217.776 54.6302 218.104ZM49.1719 224.167C49.4115 224.339 49.75 224.474 49.9792 224.287C50.0573 224.219 50.1042 224.125 50.1354 224.026C50.2657 223.63 50.1198 223.182 49.8386 222.88C49.5573 222.573 48.9167 222.151 48.5782 222.568C48.1511 223.104 48.7552 223.865 49.1719 224.167ZM54.5365 222.594C54.3386 222.802 54.25 223.115 54.3177 223.396C54.3854 223.672 54.6042 223.912 54.875 224.011C55.0313 224.063 55.2292 224.063 55.3386 223.938C55.4011 223.87 55.4219 223.776 55.4427 223.688C55.4948 223.401 55.4896 223.083 55.3386 222.833C55.1875 222.583 54.849 222.432 54.5886 222.563M60.7917 218.49C60.9375 218.516 61.099 218.5 61.2032 218.401C61.3021 218.313 61.3386 218.177 61.3542 218.042C61.4115 217.474 60.9948 216.396 60.2865 216.922C59.6563 217.396 60.1042 218.38 60.7917 218.49ZM66.1979 223.458C66.349 223.641 66.5261 223.813 66.75 223.891C66.974 223.974 67.25 223.943 67.4167 223.776C67.6094 223.578 67.6042 223.255 67.4948 223.005C67.3386 222.63 66.7396 222.13 66.2917 222.193C65.6146 222.281 65.9011 223.094 66.1979 223.458ZM60.1042 223.542C60.2032 223.698 60.3177 223.849 60.4792 223.938C60.6354 224.031 60.8386 224.063 61 223.984C61.1927 223.886 61.2865 223.662 61.3021 223.448C61.3282 222.984 60.875 222.234 60.3334 222.255C59.6407 222.276 59.8646 223.151 60.1042 223.542ZM60.0573 228.646C60.1771 228.984 60.5052 229.229 60.8594 229.297C61.0625 229.339 61.3073 229.313 61.4375 229.151C61.5365 229.031 61.5521 228.87 61.5417 228.719C61.4375 227.511 59.5729 227.333 60.0573 228.646ZM53.9948 229.104C54.0938 229.5 54.4375 229.818 54.8386 229.906C54.9479 229.932 55.0677 229.938 55.1771 229.901C55.3438 229.844 55.4636 229.693 55.5209 229.531C55.6407 229.193 55.5157 228.802 55.2709 228.552C54.6927 227.969 53.7657 228.115 53.9948 229.104ZM58.0938 246.313C58.3386 246.573 58.7865 246.651 59.0677 246.427C59.6563 245.964 59.6354 244.474 58.6875 244.495C57.7917 244.516 57.5469 245.74 58.0938 246.313ZM58.3386 251.578C58.3386 251.823 58.3959 252.089 58.5782 252.255C58.8334 252.49 59.2761 252.427 59.5261 252.182C59.7709 251.932 59.8438 251.552 59.7917 251.203C59.7709 251.089 59.7396 250.974 59.6719 250.886C59.0469 250.047 58.3334 250.797 58.3386 251.578ZM52.9167 252.224C53.1927 252.432 53.6146 252.438 53.875 252.203C54.0365 252.063 54.125 251.849 54.1615 251.636C54.2657 251.078 53.6146 250.49 53.0469 250.662C52.4063 250.859 52.4584 251.88 52.9167 252.224ZM53.0417 256.693C52.8907 256.979 52.8907 257.339 53.0469 257.625C53.1771 257.87 53.4532 258.057 53.7292 258.016C53.9219 257.979 54.0834 257.839 54.1875 257.667C54.2865 257.5 54.3386 257.302 54.3854 257.109C54.4479 256.865 54.5 256.599 54.4063 256.365C54.1511 255.729 53.25 256.302 53.0417 256.693ZM47.0261 257.453C47.1875 257.828 47.6563 258.063 48.0261 257.901C48.7292 257.589 48.8802 256.313 48.0834 256.031C47.2865 255.75 46.7396 256.797 47.0261 257.453ZM47.4011 263.344C47.5261 263.693 47.9323 263.865 48.2969 263.849C48.4375 263.844 48.5782 263.818 48.6927 263.734C48.8438 263.625 48.9115 263.432 48.9636 263.25C49.099 262.734 49 261.844 48.25 261.886C47.6927 261.917 47.224 262.859 47.4011 263.344ZM53.3334 268.573C53.3021 268.787 53.3334 269.011 53.4479 269.193C53.5677 269.375 53.7813 269.5 53.9948 269.479C54.2657 269.453 54.4688 269.214 54.599 268.974C54.7657 268.672 54.8698 268.318 54.7604 267.99C54.4219 266.943 53.4167 267.938 53.3334 268.573ZM53.2552 262.599C53.1354 262.922 53.1511 263.349 53.4479 263.537C53.6146 263.641 53.8386 263.636 54.0261 263.568C55.4584 263.057 53.875 260.922 53.2552 262.599ZM59.6823 258.031C60.7032 257.948 60.4063 256.511 59.5052 256.438C58.3542 256.339 58.7292 258.109 59.6823 258.031ZM63.974 252.011C64.0521 252.219 64.2188 252.396 64.4323 252.443C64.6667 252.495 64.9167 252.375 65.0729 252.198C65.4688 251.745 65.75 250.438 64.8959 250.307C64.0782 250.182 63.7552 251.427 63.974 252.011ZM64.7865 257.208C64.6979 257.474 64.7188 257.766 64.7917 258.037C64.8438 258.24 64.9375 258.438 65.0938 258.573C65.25 258.708 65.4896 258.766 65.6719 258.672C65.875 258.573 65.9584 258.333 66.0052 258.115C66.0573 257.854 66.0834 257.583 66.0677 257.318C66.0261 256.313 65.0782 256.302 64.7865 257.208ZM64.8438 263.766C64.9115 264.011 65.1094 264.229 65.3594 264.25C65.5521 264.271 65.7448 264.162 65.8698 264.016C66 263.865 66.0677 263.672 66.1146 263.484C66.2448 262.969 66.2396 262.042 65.4271 262.214C64.8646 262.333 64.7136 263.313 64.8438 263.766ZM59.0729 263.932C59.224 264 59.3959 264.037 59.5625 264.011C60.4792 263.865 60.6511 262.255 59.599 262.182C58.5677 262.109 58.0104 263.479 59.0729 263.932ZM80.5938 256.578C80.6667 257.083 81.0782 257.547 81.5834 257.583C81.6615 257.589 81.7448 257.583 81.8125 257.547C81.9375 257.479 81.9844 257.333 82.0157 257.198C82.1511 256.615 82.0938 255.698 81.4115 255.453C80.7448 255.214 80.5157 256.052 80.5938 256.578ZM87.0052 249.292C86.9219 249.24 86.8334 249.359 86.8125 249.453C86.7552 249.729 86.7761 250.021 86.8854 250.287C86.9636 250.479 87.0886 250.656 87.2761 250.75C87.4636 250.839 87.7136 250.818 87.849 250.667C87.9323 250.573 87.9636 250.448 87.974 250.328C88.0104 249.813 87.5729 249.313 87.0573 249.281M86.599 256.271C86.7813 256.495 87.0417 256.698 87.3229 256.641C87.5261 256.599 87.6823 256.427 87.7552 256.229C87.8282 256.037 87.8282 255.823 87.8177 255.615C87.7552 254.349 85.4375 254.833 86.599 256.271ZM92.2344 249.526C92.2657 249.891 92.4636 250.229 92.7604 250.438C92.9479 250.573 93.2032 250.651 93.4063 250.531C93.5938 250.422 93.6563 250.188 93.6823 249.974C93.724 249.636 93.7084 249.281 93.5469 248.984C93.0417 248.083 92.1563 248.656 92.2344 249.526ZM98.7917 250.448C98.9063 250.453 99.0209 250.443 99.1198 250.386C99.2032 250.339 99.2604 250.255 99.3073 250.167C99.6563 249.537 99.1615 247.958 98.2396 248.432C97.3125 248.912 97.8854 250.38 98.7917 250.448ZM92.0365 255.136C92.0104 255.396 92.1302 255.651 92.2761 255.87C92.3959 256.047 92.5417 256.214 92.7292 256.313C92.9167 256.412 93.1563 256.438 93.3438 256.339C93.6146 256.198 93.7136 255.865 93.7448 255.557C93.7709 255.302 93.7604 255.016 93.5834 254.823C93.2032 254.406 92.1042 254.464 92.0365 255.136ZM98.1146 255.792C98.3177 256.068 98.6407 256.255 98.9792 256.292C99.0573 256.297 99.1459 256.297 99.2136 256.255C99.2709 256.224 99.3125 256.167 99.349 256.109C99.5938 255.708 99.6042 255.167 99.3438 254.776C98.5677 253.625 97.3646 254.766 98.1146 255.792ZM92.3854 260.932C92.3907 261.234 92.4323 261.547 92.5729 261.818C92.7084 262.089 92.9479 262.318 93.2396 262.396C93.3907 262.432 93.5521 262.432 93.6823 262.354C93.8854 262.234 93.9532 261.979 93.9844 261.745C94.0157 261.5 94.0261 261.25 93.9636 261.011C93.9011 260.771 93.7552 260.547 93.5365 260.427C92.9688 260.109 92.3802 260.229 92.3854 260.932ZM87.0209 262.531C87.1927 262.641 87.4271 262.693 87.5886 262.568C87.6771 262.495 87.7188 262.386 87.7448 262.276C87.8698 261.792 87.5469 260.349 86.7813 260.755C86.1042 261.109 86.5313 262.229 87.0209 262.531ZM103.896 261.714C104.068 261.896 104.339 262.021 104.568 261.922C104.734 261.849 104.833 261.677 104.901 261.511C105.026 261.193 105.068 260.818 104.917 260.511C104.719 260.104 104.057 259.844 103.729 260.203C103.38 260.589 103.578 261.38 103.896 261.714ZM98.5782 262.198C98.7813 262.307 99.0521 262.313 99.2396 262.172C99.4375 262.026 99.5 261.761 99.5261 261.516C99.5834 260.859 98.9688 260.104 98.25 260.469C97.5677 260.818 98.0469 261.927 98.5782 262.198ZM97.9636 266.62C97.974 266.745 98.0313 266.865 98.099 266.969C98.2604 267.224 98.4896 267.432 98.7552 267.568C98.9167 267.651 99.1198 267.703 99.2813 267.609C99.3854 267.547 99.4427 267.427 99.4896 267.313C99.6302 266.922 99.6198 266.453 99.3646 266.125C98.9115 265.521 97.8959 265.802 97.9636 266.62ZM91.9115 267.792C92.0469 267.927 92.2448 268.011 92.4323 267.974C92.7032 267.922 92.8802 267.646 92.9219 267.375C93.0104 266.865 92.5469 265.781 91.875 266.109C91.3073 266.38 91.5677 267.448 91.9115 267.792ZM97.3229 208.281C97.8802 207.641 96.9479 206.089 96.2032 206.979C95.5834 207.719 96.75 208.943 97.3229 208.281ZM91.2136 213.792C91.349 213.886 91.5 213.974 91.6667 213.99C92 214.021 92.3073 213.719 92.3334 213.386C92.3594 213.052 92.1407 212.734 91.8386 212.583C90.7709 212.047 90.3282 213.167 91.2136 213.792ZM96.5469 213.667C96.6719 213.787 96.8386 213.854 97.0052 213.896C97.1927 213.943 97.4115 213.948 97.5677 213.828C97.6823 213.74 97.7396 213.594 97.7604 213.448C97.8021 213.162 97.6823 212.865 97.4636 212.677C96.7084 212.031 95.8542 213.037 96.5469 213.667ZM102.651 213.901C102.865 214.037 103.146 214.078 103.385 213.995C103.479 213.969 103.563 213.922 103.62 213.849C103.677 213.776 103.703 213.682 103.714 213.589C103.745 213.261 103.594 212.912 103.313 212.74C102.448 212.198 101.854 213.386 102.651 213.901ZM97.2136 219.906C97.4479 219.99 97.7292 219.99 97.9167 219.828C98.0469 219.714 98.1042 219.537 98.1198 219.365C98.1563 218.74 97.4115 217.958 96.7657 218.333C96.0573 218.75 96.6354 219.714 97.2136 219.906ZM102.755 219.813C102.969 220.099 103.401 220.245 103.698 220.047C103.943 219.886 104.016 219.557 104.036 219.261C104.052 219.078 104.052 218.886 103.948 218.734C103.422 217.927 102.083 218.912 102.755 219.813ZM102.88 225.479C103.135 225.745 103.615 225.807 103.87 225.537C104.057 225.344 104.073 225.047 104.068 224.776C104.042 223.464 101.844 224.406 102.88 225.479ZM97.4532 225.583C97.6667 225.625 97.9063 225.62 98.0782 225.484C98.2448 225.359 98.3177 225.141 98.3229 224.938C98.349 224.245 97.5886 223.698 96.9584 224.099C96.2448 224.557 96.7969 225.453 97.4532 225.583ZM92.0677 220.042C92.2344 219.979 92.3594 219.828 92.4271 219.667C92.5 219.505 92.5261 219.323 92.5417 219.146C92.5573 219.005 92.5677 218.859 92.5209 218.729C92.2969 218.13 91.2292 218.026 90.9688 218.636C90.7136 219.224 91.3698 220.297 92.0677 220.042ZM91.2865 225.219C91.5886 225.474 92.0834 225.469 92.3646 225.193C92.6459 224.917 92.6615 224.406 92.375 224.13C91.5157 223.292 90.4063 224.479 91.2865 225.219ZM91.7917 231.104C92.0782 231.182 92.4063 231.136 92.6302 230.943C92.8542 230.75 92.9532 230.412 92.8229 230.146C92.6042 229.698 91.7969 229.438 91.4271 229.833C91.0104 230.271 91.2396 230.953 91.7917 231.104ZM85.8438 223.844C85.6667 223.958 85.5625 224.177 85.5677 224.391C85.5677 224.599 85.6667 224.807 85.8229 224.953C86.0052 225.125 86.2917 225.208 86.5052 225.083C86.7032 224.974 86.7813 224.719 86.7396 224.495C86.7032 224.276 86.5625 224.073 86.3646 223.964C86.1667 223.854 85.9219 223.839 85.7136 223.922M85.2604 217.922C85.5834 217.396 86.2969 217.797 86.4479 218.255C86.5625 218.604 86.4844 219.005 86.2448 219.281C86.1979 219.339 86.1407 219.391 86.0729 219.412C85.9896 219.432 85.9063 219.412 85.8282 219.375C85.4479 219.182 85.0104 218.339 85.2604 217.922Z" fill="#87453E"/>
<path d="M88.995 238.167C89.396 238.714 89.6356 239.427 89.4637 240.083C89.3648 240.448 89.1565 240.766 88.9481 241.078C85.9898 245.49 82.4221 249.5 78.3856 252.953C77.844 253.417 77.245 253.891 76.5315 253.927C75.62 253.974 74.8492 253.297 74.1929 252.662C71.2033 249.771 68.2137 246.88 65.219 243.99C64.245 243.047 63.271 242.365 62.3075 241.406C61.6825 240.787 61.0419 239.99 61.2242 239.13C61.3075 238.735 61.5627 238.396 61.8075 238.073C65.021 233.927 68.5783 230.042 72.4325 226.485C73.12 225.849 73.9481 225.177 74.8804 225.281C75.4846 225.349 75.995 225.735 76.4742 226.11C80.4117 229.229 88.594 237.615 88.995 238.167Z" fill="#E4AD88"/>
</g>
<path d="M313.729 225.349H394.677V256.688H313.729V225.349Z" fill="white"/>
<path d="M87.8428 223.102L74.2803 223.144V251.149H81.3636V243.107H87.8428C96.0459 243.107 101.525 238.868 101.525 232.545C101.525 226.863 96.0459 223.06 87.8428 223.102ZM94.4469 232.904C94.4469 235.826 91.8063 237.826 87.8428 237.826H81.3636V228.623H87.8428C91.8063 228.623 94.4469 230.305 94.4469 232.904Z" fill="#14354D"/>
<path d="M120.811 230.503C117.488 230.503 114.686 232.467 113.529 234.383H113.165V230.904H106.326V251.149H113.165V236.784C113.165 236.784 114.805 235.383 117.29 235.383C119.529 235.383 121.05 236.904 121.087 239.185V240.024H127.889V238.227C127.889 233.587 125.008 230.503 120.811 230.503Z" fill="#14354D"/>
<path d="M155.053 244.347C153.012 246.029 149.335 247.029 145.694 247.029C141.814 246.988 138.689 245.269 138.168 242.467L138.09 242.029H155.574V239.545C155.455 234.066 150.652 230.545 143.574 230.545C136.132 230.545 131.21 234.706 131.21 240.988C131.21 247.227 136.251 251.508 143.293 251.951C146.85 252.191 151.533 251.149 155.173 249.227L155.053 244.347ZM138.168 239.425C138.449 236.826 140.689 235.066 143.694 235.066C146.694 235.066 148.694 236.785 148.772 239.389L138.168 239.425Z" fill="#14354D"/>
<path d="M172.654 239.347C168.097 239.024 166.816 238.665 166.816 237.186C166.816 235.347 169.456 234.623 172.654 234.785C176.456 234.988 181.258 236.227 183.581 237.785L183.701 232.383C180.899 230.665 176.659 229.665 172.534 229.623C166.097 229.545 159.972 231.665 159.972 236.868C159.972 240.467 161.654 242.107 171.055 242.91C175.097 243.186 177.019 243.227 177.019 244.748C176.935 246.706 173.654 247.389 169.576 247.107C166.732 246.988 163.493 246.389 160.732 245.67V250.43C163.935 251.43 167.055 251.988 169.894 252.107C178.217 252.55 183.899 249.748 183.899 244.587C183.899 240.227 179.54 239.826 172.654 239.347Z" fill="#14354D"/>
<path d="M200.418 251.67C207.543 251.67 212.381 248.269 212.543 243.149L205.74 243.227C205.579 245.305 203.501 246.67 200.579 246.67C197.22 246.67 195.017 244.347 195.017 240.826C195.017 237.503 197.22 235.347 200.579 235.347C203.501 235.347 205.579 236.665 205.74 238.706L212.543 238.748C212.381 233.706 207.584 230.342 200.501 230.342C193.1 230.342 188.178 234.545 188.178 240.868C188.178 247.347 193.058 251.67 200.418 251.67Z" fill="#14354D"/>
<path d="M232.227 230.503C228.904 230.503 226.102 232.467 224.945 234.383H224.581V230.904H217.742V251.149H224.581V236.784C224.581 236.784 226.221 235.383 228.706 235.383C230.945 235.383 232.466 236.904 232.503 239.185V240.024H239.305V238.227C239.305 233.587 236.424 230.503 232.227 230.503Z" fill="#14354D"/>
<path d="M246.943 228.904C248.787 228.904 250.266 227.425 250.266 225.581C250.266 223.743 248.787 222.264 246.943 222.264C245.105 222.264 243.626 223.743 243.626 225.581C243.626 227.425 245.105 228.904 246.943 228.904ZM250.344 251.149V230.863H243.506V251.149H250.344Z" fill="#14354D"/>
<path d="M271.789 230.503C268.19 230.503 264.867 232.264 263.591 234.623H263.226L263.268 222.342H256.43L256.346 251.149H263.388V247.467H264.028C265.232 249.951 267.831 251.508 271.471 251.508C277.19 251.508 281.034 247.186 281.034 240.748C281.034 234.623 277.351 230.503 271.789 230.503ZM274.232 240.706C274.232 244.186 272.028 246.508 268.711 246.508C265.43 246.508 263.226 244.467 263.226 241.389V236.904C263.226 236.904 267.351 235.503 268.711 235.503C272.028 235.503 274.232 237.587 274.232 240.706Z" fill="#14354D"/>
<path d="M309.196 244.347C307.154 246.029 303.477 247.029 299.836 247.029C295.956 246.988 292.831 245.269 292.31 242.467L292.232 242.029H309.716V239.545C309.597 234.066 304.795 230.545 297.716 230.545C290.274 230.545 285.352 234.706 285.352 240.988C285.352 247.227 290.393 251.508 297.435 251.951C300.992 252.191 305.675 251.149 309.315 249.227L309.196 244.347ZM292.31 239.425C292.591 236.826 294.831 235.066 297.836 235.066C300.836 235.066 302.836 236.785 302.914 239.389L292.31 239.425Z" fill="#14354D"/>
<path d="M316.796 251.55C318.755 251.55 320.359 249.951 320.359 247.909C320.359 245.946 318.755 244.347 316.796 244.347C314.755 244.347 313.156 245.946 313.156 247.909C313.156 249.951 314.755 251.55 316.796 251.55Z" fill="#14354D"/>
<path d="M355.923 230.503C352.605 230.503 349.282 232.467 347.725 235.227H347.204C345.964 232.425 343.162 230.503 340.079 230.503C336.917 230.503 333.678 232.264 332.037 234.863H331.678V230.863H324.839V251.149H331.678V236.587C332.157 236.587 335.319 235.383 336.6 235.383C339.402 235.383 341.079 237.024 341.079 239.628V251.149H347.923V236.545C347.923 236.587 349.845 235.383 352.845 235.383C355.563 235.383 357.365 237.107 357.365 239.748V251.149H364.204L364.167 238.545C364.167 233.743 360.886 230.503 355.923 230.503Z" fill="#14354D"/>
<path d="M392.728 244.347C390.686 246.029 387.009 247.029 383.368 247.029C379.488 246.988 376.363 245.269 375.842 242.467L375.764 242.029H393.248V239.545C393.129 234.066 388.326 230.545 381.248 230.545C373.806 230.545 368.884 234.706 368.884 240.988C368.884 247.227 373.925 251.508 380.967 251.951C384.524 252.191 389.207 251.149 392.847 249.227L392.728 244.347ZM375.842 239.425C376.123 236.826 378.363 235.066 381.368 235.066C384.368 235.066 386.368 236.785 386.446 239.389L375.842 239.425Z" fill="#14354D"/>
</g>
<defs>
<clipPath id="clip0_44_2">
<rect width="500" height="500" fill="white"/>
</clipPath>
</defs>
</svg>
