<svg xmlns="http://www.w3.org/2000/svg" version="1.1" xmlns:xlink="http://www.w3.org/1999/xlink" xmlns:svgjs="http://svgjs.dev/svgjs" width="1000" height="1000" viewBox="0 0 1000 1000"><rect width="1000" height="1000" fill="#ffffff"></rect><g transform="matrix(0.7,0,0,0.7,150,281.25)"><svg viewBox="0 0 576 360" data-background-color="#ffffff" preserveAspectRatio="xMidYMid meet" height="625" width="1000" xmlns="http://www.w3.org/2000/svg" xmlns:xlink="http://www.w3.org/1999/xlink"><g id="tight-bounds" transform="matrix(1,0,0,1,0,0)"><svg viewBox="0 0 576 360" height="360" width="576"><g><svg></svg></g><g><svg viewBox="0 0 576 360" height="360" width="576"><g><path d="M132.115 90l155.885-90 155.885 90v180l-155.885 90-155.885-90zM134.355 268.707l153.645 88.707 153.645-88.707v-177.414l-153.645-88.707-153.645 88.707z" fill="#4b91f1" fill-rule="nonzero" stroke="none" stroke-width="1" stroke-linecap="butt" stroke-linejoin="miter" stroke-miterlimit="10" stroke-dasharray="" stroke-dashoffset="0" font-family="none" font-weight="none" font-size="none" text-anchor="none" style="mix-blend-mode: normal" data-fill-palette-color="tertiary"></path></g><g transform="matrix(1,0,0,1,172.8,133.08694228404855)"><svg viewBox="0 0 230.4 93.8261154319029" height="93.8261154319029" width="230.4"><g><svg viewBox="0 0 230.4 93.8261154319029" height="93.8261154319029" width="230.4"><g transform="matrix(1,0,0,1,0,68.99100463847903)"><svg viewBox="0 0 230.4 24.835110793423876" height="24.835110793423876" width="230.4"><g><svg viewBox="0 0 230.4 24.835110793423876" height="24.835110793423876" width="230.4"><g><svg viewBox="0 0 230.4 24.835110793423876" height="24.835110793423876" width="230.4"><g transform="matrix(1,0,0,1,0,0)"><svg width="230.4" viewBox="5.2 -37.3 349.72 37.699999999999996" height="24.835110793423876" data-palette-color="#4b91f1"><path d="M5.2-36.15L14.85-36.15Q18.8-36.15 21.6-34.83 24.4-33.5 25.93-31 27.45-28.5 27.45-24.95L27.45-24.95Q27.45-22.8 26.8-20.73 26.15-18.65 24.73-16.98 23.3-15.3 21-14.3 18.7-13.3 15.4-13.3L15.4-13.3 10.05-13.3 10.05 0 5.2 0 5.2-36.15ZM10.05-17.95L15.35-17.95Q17.5-17.95 18.9-18.65 20.3-19.35 21.1-20.43 21.9-21.5 22.25-22.7 22.6-23.9 22.6-24.85L22.6-24.85Q22.6-25.95 22.25-27.13 21.9-28.3 21.08-29.28 20.25-30.25 18.93-30.88 17.6-31.5 15.65-31.5L15.65-31.5 10.05-31.5 10.05-17.95ZM34.95-36.15L44.55-36.15Q47.3-36.15 49.62-35.43 51.95-34.7 53.67-33.27 55.4-31.85 56.37-29.78 57.35-27.7 57.35-24.95L57.35-24.95Q57.35-22.8 56.72-20.75 56.1-18.7 54.65-17.03 53.2-15.35 50.87-14.33 48.55-13.3 45.15-13.3L45.15-13.3 39.8-13.3 39.8 0 34.95 0 34.95-36.15ZM39.8-17.95L45.05-17.95Q47.2-17.95 48.62-18.6 50.05-19.25 50.85-20.28 51.65-21.3 52-22.5 52.35-23.7 52.35-24.75L52.35-24.75Q52.35-25.85 51.97-27.03 51.6-28.2 50.77-29.2 49.95-30.2 48.62-30.85 47.3-31.5 45.4-31.5L45.4-31.5 39.8-31.5 39.8-17.95ZM45.25-15.05L51-15.2 60.45 0 54.85 0 45.25-15.05ZM67.9 0L67.9-36.15 91.4-36.15 91.4-31.5 72.75-31.5 72.75-20.5 89.4-20.5 89.4-15.85 72.75-15.85 72.75-4.65 92.1-4.65 92.1 0 67.9 0ZM121.04-33.4L119.19-29.7Q117.34-30.65 115.14-31.35 112.94-32.05 110.84-32.05L110.84-32.05Q107.94-32.05 106.22-30.7 104.49-29.35 104.49-27.1L104.49-27.1Q104.49-25.4 105.59-24.23 106.69-23.05 108.49-22.2 110.29-21.35 112.24-20.6L112.24-20.6Q113.94-19.95 115.59-19.15 117.24-18.35 118.57-17.15 119.89-15.95 120.67-14.2 121.44-12.45 121.44-9.85L121.44-9.85Q121.44-7 120.02-4.65 118.59-2.3 115.94-0.95 113.29 0.4 109.64 0.4L109.64 0.4Q107.24 0.4 105.07-0.15 102.89-0.7 101.04-1.58 99.19-2.45 97.74-3.4L97.74-3.4 99.89-7.2Q101.09-6.35 102.64-5.58 104.19-4.8 105.89-4.33 107.59-3.85 109.19-3.85L109.19-3.85Q110.89-3.85 112.57-4.48 114.24-5.1 115.34-6.4 116.44-7.7 116.44-9.85L116.44-9.85Q116.44-11.7 115.47-12.93 114.49-14.15 112.89-15.03 111.29-15.9 109.49-16.6L109.49-16.6Q107.79-17.25 106.04-18.03 104.29-18.8 102.79-19.93 101.29-21.05 100.39-22.7 99.49-24.35 99.49-26.7L99.49-26.7Q99.49-29.55 100.87-31.68 102.24-33.8 104.64-35.02 107.04-36.25 110.14-36.35L110.14-36.35Q113.64-36.35 116.32-35.5 118.99-34.65 121.04-33.4L121.04-33.4ZM154.09-7L156.14-2.7Q155.24-2.1 153.69-1.35 152.14-0.6 150.07-0.1 147.99 0.4 145.54 0.4L145.54 0.4Q141.34 0.35 137.97-1.1 134.59-2.55 132.24-5.05 129.89-7.55 128.62-10.83 127.34-14.1 127.34-17.8L127.34-17.8Q127.34-21.85 128.67-25.28 129.99-28.7 132.39-31.23 134.79-33.75 138.07-35.15 141.34-36.55 145.24-36.55L145.24-36.55Q148.49-36.55 151.14-35.68 153.79-34.8 155.69-33.6L155.69-33.6 153.74-29.1Q152.24-30.1 150.12-31 147.99-31.9 145.39-31.9L145.39-31.9Q142.74-31.9 140.39-30.85 138.04-29.8 136.24-27.9 134.44-26 133.42-23.48 132.39-20.95 132.39-18.05L132.39-18.05Q132.39-15.1 133.32-12.58 134.24-10.05 135.97-8.2 137.69-6.35 140.14-5.3 142.59-4.25 145.64-4.25L145.64-4.25Q148.39-4.25 150.54-5.1 152.69-5.95 154.09-7L154.09-7ZM164.29-36.15L173.89-36.15Q176.64-36.15 178.96-35.43 181.29-34.7 183.01-33.27 184.74-31.85 185.71-29.78 186.69-27.7 186.69-24.95L186.69-24.95Q186.69-22.8 186.06-20.75 185.44-18.7 183.99-17.03 182.54-15.35 180.21-14.33 177.89-13.3 174.49-13.3L174.49-13.3 169.14-13.3 169.14 0 164.29 0 164.29-36.15ZM169.14-17.95L174.39-17.95Q176.54-17.95 177.96-18.6 179.39-19.25 180.19-20.28 180.99-21.3 181.34-22.5 181.69-23.7 181.69-24.75L181.69-24.75Q181.69-25.85 181.31-27.03 180.94-28.2 180.11-29.2 179.29-30.2 177.96-30.85 176.64-31.5 174.74-31.5L174.74-31.5 169.14-31.5 169.14-17.95ZM174.59-15.05L180.34-15.2 189.79 0 184.19 0 174.59-15.05ZM197.24 0L197.24-36.15 202.09-36.15 202.09 0 197.24 0ZM212.48-36.15L221.78-36.15Q227.23-36.15 230.36-33.93 233.48-31.7 233.48-27L233.48-27Q233.48-24.15 232.18-22.05 230.88-19.95 228.56-18.75 226.23-17.55 223.08-17.4L223.08-17.4 222.38-19.9Q226.03-19.8 228.93-18.6 231.83-17.4 233.53-15.25 235.23-13.1 235.23-10.15L235.23-10.15Q235.23-7.45 234.23-5.53 233.23-3.6 231.53-2.38 229.83-1.15 227.68-0.58 225.53 0 223.23 0L223.23 0 212.48 0 212.48-36.15ZM217.33-20.3L222.78-20.3Q225.78-20.3 227.13-21.98 228.48-23.65 228.48-26.05L228.48-26.05Q228.48-28.9 226.73-30.2 224.98-31.5 222.03-31.5L222.03-31.5 217.33-31.5 217.33-20.3ZM217.33-4.5L222.98-4.5Q224.98-4.5 226.66-5.1 228.33-5.7 229.31-6.95 230.28-8.2 230.28-10.1L230.28-10.1Q230.28-12.2 229.16-13.4 228.03-14.6 226.28-15.13 224.53-15.65 222.68-15.65L222.68-15.65 217.33-15.65 217.33-4.5ZM243.38 0L243.38-36.15 266.88-36.15 266.88-31.5 248.23-31.5 248.23-20.5 264.88-20.5 264.88-15.85 248.23-15.85 248.23-4.65 267.58-4.65 267.58 0 243.38 0ZM272.48-2.65L272.48-2.65Q272.48-3.75 273.3-4.53 274.13-5.3 275.13-5.3L275.13-5.3Q276.03-5.3 276.85-4.53 277.68-3.75 277.68-2.65L277.68-2.65Q277.68-1.45 276.85-0.73 276.03 0 275.13 0L275.13 0Q274.13 0 273.3-0.73 272.48-1.45 272.48-2.65L272.48-2.65ZM289.07 0L284.38 0 284.38-37.3 284.43-37.3 303.38-10.4 301.32-10.8 320.23-37.3 320.33-37.3 320.33 0 315.53 0 315.53-26.3 315.82-23.85 302.18-4.55 302.07-4.55 288.23-23.85 289.07-26.1 289.07 0ZM330.72 0L330.72-36.15 354.22-36.15 354.22-31.5 335.57-31.5 335.57-20.5 352.22-20.5 352.22-15.85 335.57-15.85 335.57-4.65 354.92-4.65 354.92 0 330.72 0Z" opacity="1" transform="matrix(1,0,0,1,0,0)" fill="#4b91f1" class="undefined-text-0" data-fill-palette-color="primary" id="text-0"></path></svg></g></svg></g></svg></g></svg></g><g transform="matrix(1,0,0,1,86.56747129642882,0)"><svg viewBox="0 0 57.26505740714236 57.26505740714236" height="57.26505740714236" width="57.26505740714236"><g><svg></svg></g><g id="icon-0"><svg viewBox="0 0 57.26505740714236 57.26505740714236" height="57.26505740714236" width="57.26505740714236"><g><path d="M0 28.633c0-15.813 12.819-28.633 28.633-28.633 15.813 0 28.633 12.819 28.632 28.633 0 15.813-12.819 28.633-28.632 28.632-15.813 0-28.633-12.819-28.633-28.632zM28.633 55.025c14.576 0 26.393-11.816 26.392-26.392 0-14.576-11.816-26.393-26.392-26.393-14.576 0-26.393 11.816-26.393 26.393 0 14.576 11.816 26.393 26.393 26.392z" data-fill-palette-color="accent" fill="#4b91f1" stroke="transparent"></path><ellipse rx="28.346203416535467" ry="28.346203416535467" cx="28.63252870357118" cy="28.63252870357118" fill="#4b91f1" stroke="transparent" stroke-width="0" fill-opacity="1" data-fill-palette-color="accent"></ellipse></g><g transform="matrix(1,0,0,1,17.833738883066662,15.004097117860525)"><svg viewBox="0 0 21.597579641009034 27.25686317142131" height="27.25686317142131" width="21.597579641009034"><g><svg xmlns="http://www.w3.org/2000/svg" xmlns:xlink="http://www.w3.org/1999/xlink" version="1.1" x="0" y="0" viewBox="-250.70000000000002 140.98709328582086 63.39999999999998 80.01290671417914" enable-background="new -269 131 100 100" xml:space="preserve" height="27.25686317142131" width="21.597579641009034" class="icon-wb-0" data-fill-palette-color="quaternary" id="wb-0"><path d="M-200.1 163.7l-1-0.8c-1.2-1-3.1-0.6-3.8 0.8-0.3 0.7-0.6 7.7-0.6 8.9 0 0.2 0 0.6 0 0.7 0 1-0.9 1.8-1.9 1.6-0.8-0.1-1.4-0.9-1.4-1.7-0.1-12-3.7-20.4-10.5-26.7-4.1-3.8-9-7.2-10.5-4.6-0.4 0.7 0.2 2.2 0.9 4.1 1.4 4.3-2.9 11.2-9 18.1-5.7 6.5-12.8 14.5-12.8 26.4 0 16 15.1 30.5 31.7 30.5 16.6 0 31.7-14.5 31.7-30.5C-187.3 180.4-192.1 170.4-200.1 163.7zM-219 215.2c-7.2 0-13.1-5.9-13.1-13.1 0-3.6 1.4-6.8 3.8-9.2l7.2-8.6c1.1-1.3 3.2-1.3 4.3 0l7.2 8.6c2.3 2.4 3.8 5.6 3.8 9.2C-205.9 209.3-211.8 215.2-219 215.2z" fill="#ffffff" data-fill-palette-color="quaternary"></path></svg></g></svg></g></svg></g></svg></g><g></g></svg></g></svg></g></svg></g><defs></defs></svg><rect width="576" height="360" fill="none" stroke="none" visibility="hidden"></rect></g></svg></g></svg>