<svg width="128" height="128" viewBox="0 0 128 128" fill="none" xmlns="http://www.w3.org/2000/svg">
<path d="M0 0H101.516V110.344H0V0Z" fill="#D7E3F9"/>
<path d="M41.9322 19.8646C41.9322 20.5885 41.8593 21.3073 41.7187 22.0156C41.578 22.7292 41.3697 23.4167 41.0937 24.0885C40.8124 24.7552 40.4739 25.3906 40.0728 25.9948C39.6718 26.5938 39.2135 27.151 38.6978 27.6667C38.1874 28.1771 37.6301 28.6354 37.026 29.0365C36.427 29.4427 35.7916 29.7813 35.1197 30.0573C34.453 30.3333 33.7603 30.5469 33.052 30.6875C32.3385 30.8281 31.6197 30.8958 30.8958 30.8958C30.1718 30.8958 29.453 30.8281 28.7447 30.6875C28.0364 30.5469 27.3437 30.3333 26.677 30.0573C26.0051 29.7813 25.3697 29.4427 24.7655 29.0365C24.1666 28.6354 23.6093 28.1771 23.0937 27.6667C22.5833 27.151 22.1249 26.5938 21.7239 25.9948C21.3176 25.3906 20.9791 24.7552 20.703 24.0885C20.427 23.4167 20.2135 22.7292 20.0728 22.0156C19.9322 21.3073 19.8645 20.5885 19.8645 19.8646C19.8645 19.1406 19.9322 18.4219 20.0728 17.7083C20.2135 17 20.427 16.3125 20.703 15.6406C20.9791 14.9688 21.3176 14.3333 21.7239 13.7344C22.1249 13.1302 22.5833 12.5729 23.0937 12.0625C23.6093 11.5469 24.1666 11.0885 24.7655 10.6875C25.3697 10.2865 26.0051 9.94792 26.677 9.66667C27.3437 9.39063 28.0364 9.18229 28.7447 9.04167C29.453 8.90104 30.1718 8.82812 30.8958 8.82812C31.6197 8.82812 32.3385 8.90104 33.052 9.04167C33.7603 9.18229 34.453 9.39063 35.1197 9.66667C35.7916 9.94792 36.427 10.2865 37.026 10.6875C37.6301 11.0885 38.1874 11.5469 38.6978 12.0625C39.2135 12.5729 39.6718 13.1302 40.0728 13.7344C40.4739 14.3333 40.8124 14.9688 41.0937 15.6406C41.3697 16.3125 41.578 17 41.7187 17.7083C41.8593 18.4219 41.9322 19.1406 41.9322 19.8646Z" fill="#FFBB4D"/>
<path d="M90.4845 30.896H81.6563V22.0679H70.6199V30.896H61.7917V41.9325H70.6199V50.7606H81.6563V41.9325H90.4845V30.896Z" fill="#3162A8"/>
<path d="M30.8958 30.896C19.927 30.896 11.0364 39.7918 11.0364 50.7606V57.3804H50.7603V50.7606C50.7603 39.7918 41.8697 30.896 30.8958 30.896Z" fill="#FFBB4D"/>
<path d="M11.0364 66.2085H50.7603V70.62H11.0364V66.2085Z" fill="#3162A8"/>
<path d="M11.0364 75.0366H50.7603V79.4481H11.0364V75.0366Z" fill="#3162A8"/>
<path d="M11.0364 83.8647H50.7603V88.2762H11.0364V83.8647Z" fill="#3162A8"/>
<path d="M94.8959 128C70.6199 116.969 61.7917 86.0677 61.7917 70.6198C70.6199 70.6198 88.2761 64 94.8959 55.1719C101.516 64 119.172 70.6198 128 70.6198C128 86.0677 119.172 116.969 94.8959 128Z" fill="#0ACFCF"/>
<path d="M103.724 81.6562C103.724 76.7812 99.7708 72.8281 94.8958 72.8281C90.0208 72.8281 86.0676 76.7812 86.0676 81.6562C86.0676 84.9167 87.8541 87.7292 90.4843 89.2604L88.276 105.932H101.516L99.3124 89.2604C101.937 87.7292 103.724 84.9167 103.724 81.6562Z" fill="#3162A8"/>
</svg>
